<?xml version="1.0" encoding="UTF-8"?>
<svg version="1.1" xmlns="http://www.w3.org/2000/svg" width="343" height="220">
<path d="M0 0 C1.96938034 -0.01441132 1.96938034 -0.01441132 3.97854614 -0.02911377 C5.42824123 -0.03396733 6.87793835 -0.03824478 8.32763672 -0.04199219 C9.81484986 -0.04774781 11.302063 -0.05350549 12.78927612 -0.05926514 C15.92169541 -0.06979801 19.05408892 -0.07562271 22.18652344 -0.07910156 C26.1591258 -0.08452916 30.13137537 -0.1084216 34.10386848 -0.13707352 C37.1858307 -0.15592316 40.2677127 -0.16091762 43.34972763 -0.16243744 C44.8110429 -0.16542496 46.27235813 -0.1733177 47.73361588 -0.18662262 C65.56652767 -0.3371244 82.09216112 2.12702045 95.88232422 14.16113281 C96.48818359 14.63808594 97.09404297 15.11503906 97.71826172 15.60644531 C106.79262683 23.44899615 112.20726 37.19424209 113.08935547 48.91113281 C113.64115892 64.60687535 108.78924272 76.55732966 98.24169922 87.91894531 C95.0321559 90.96907422 91.76205338 93.04491691 87.88232422 95.16113281 C91.24448281 100.96974013 94.81315327 106.60296571 98.56982422 112.16113281 C102.86017672 118.51470367 106.87866285 125.00463999 110.81958008 131.57983398 C114.36992711 137.45681847 118.25095717 142.99217454 122.39794922 148.46191406 C123.88232422 151.16113281 123.88232422 151.16113281 123.86279297 153.82128906 C121.75113946 158.86065341 116.25775792 161.1392769 111.44873047 163.20800781 C101.80642152 166.47867901 92.26214031 166.08612999 82.88232422 162.16113281 C80.06259074 160.70312428 77.31183834 159.21739756 74.88232422 157.16113281 C74.88232422 156.50113281 74.88232422 155.84113281 74.88232422 155.16113281 C73.89232422 154.83113281 72.90232422 154.50113281 71.88232422 154.16113281 C70.57055664 152.56079102 70.57055664 152.56079102 69.23779297 150.46191406 C68.7326416 149.6754248 68.22749023 148.88893555 67.70703125 148.07861328 C67.16675293 147.21896973 66.62647461 146.35932617 66.06982422 145.47363281 C65.50376465 144.58820801 64.93770508 143.7027832 64.35449219 142.79052734 C62.5217204 139.91950316 60.70116308 137.04100079 58.88232422 134.16113281 C57.02607836 131.23208676 55.1684785 128.30391108 53.30932617 125.37670898 C52.14190342 123.53644836 50.97748302 121.69427827 49.81665039 119.84985352 C46.51279571 114.62320346 43.08391772 109.51596486 39.49804688 104.47827148 C37.1939927 101.17398345 35.05650775 97.77194001 32.90966797 94.36425781 C30.36396177 90.34214012 27.78129454 86.3446179 25.19482422 82.34863281 C24.73108398 81.63118896 24.26734375 80.91374512 23.78955078 80.17456055 C23.34192383 79.48305908 22.89429688 78.79155762 22.43310547 78.07910156 C22.00336426 77.41185059 21.57362305 76.74459961 21.13085938 76.05712891 C20.33042302 74.8416051 19.50873455 73.63966079 18.66113281 72.45654297 C16.39036268 69.27347222 15.88232422 68.25080911 15.88232422 64.16113281 C17.12320801 64.14655029 18.3640918 64.13196777 19.64257812 64.11694336 C24.26103043 64.05882558 28.87900206 63.98159334 33.49707031 63.89868164 C35.49308451 63.86549568 37.48919111 63.83744413 39.48535156 63.81469727 C42.36026262 63.78103488 45.23433165 63.72871304 48.10888672 63.67285156 C49.44048325 63.66326668 49.44048325 63.66326668 50.79898071 63.65348816 C55.86988241 63.53405451 59.52126807 63.03278961 63.88232422 60.16113281 C66.71547556 55.9114058 66.639189 52.14847337 65.88232422 47.16113281 C63.08247286 42.96135578 60.28311758 41.69071896 55.45117188 40.55859375 C48.65110859 39.50646459 41.63276051 39.79871807 34.76708984 39.77050781 C22.21707474 39.53507241 10.86502128 36.36506384 1.90966797 27.12597656 C-4.63077051 19.25245508 -7.93220425 11.42419157 -7.11767578 1.16113281 C-5.29710952 -0.65943345 -2.44774955 0.01440115 0 0 Z " fill="#091D3C" transform="translate(149.11767578125,35.8388671875)"/>
<path d="M0 0 C3.96844865 1.32281622 4.24104141 2.78653526 6.15234375 6.44921875 C6.75747803 7.59575928 7.3626123 8.7422998 7.98608398 9.92358398 C8.63655936 11.17822091 9.28703128 12.43285962 9.9375 13.6875 C10.61484773 14.97593073 11.293326 16.26376771 11.97290039 17.55102539 C13.34459493 20.15014446 14.71262598 22.75113681 16.078125 25.35351562 C18.64841147 30.24188794 21.28500311 35.09333107 23.9375 39.9375 C24.41276123 40.80713379 24.88802246 41.67676758 25.37768555 42.57275391 C31.17938854 53.17550271 37.025679 63.75380115 42.87016296 74.33300781 C45.32431202 78.77558237 47.77608553 83.2194615 50.2265625 87.6640625 C56.27002099 98.62467776 62.3154188 109.58394448 68.40893555 120.5168457 C72.23072449 127.38735977 75.97729402 134.29861629 79.72460938 141.20996094 C82.97416536 147.18309628 86.32820012 153.06228734 89.890625 158.85546875 C91 161 91 161 91 164 C74.97137844 167.65209099 56.74407804 165.08270145 42.51953125 157.0859375 C35.18432104 151.01306579 30.89764716 142.5947851 26.57574463 134.2689209 C25.27680854 131.76677823 23.95856853 129.27498087 22.6413269 126.78244019 C21.98878644 125.54736601 21.33718283 124.31179636 20.68655396 123.07571411 C18.23692615 118.42581706 15.72014494 113.8200331 13.125 109.25 C12.78364014 108.64857178 12.44228027 108.04714355 12.09057617 107.42749023 C11.4171425 106.2435217 10.74291707 105.06000314 10.06787109 103.87695312 C8.0097945 100.2595565 5.97585033 96.62853569 3.9375 93 C3.17586977 91.64578354 2.41415986 90.2916119 1.65234375 88.9375 C1.10707031 87.968125 0.56179687 86.99875 0 86 C-0.63446045 87.23133667 -0.63446045 87.23133667 -1.28173828 88.48754883 C-2.87982829 91.58752933 -4.47909027 94.68689966 -6.07910156 97.78588867 C-6.76608183 99.11703322 -7.45261924 100.44840642 -8.13867188 101.7800293 C-12.32723691 109.90915223 -16.57323726 117.99697231 -21 126 C-22.32 126 -23.64 126 -25 126 C-25.268125 124.97261719 -25.53625 123.94523437 -25.8125 122.88671875 C-29.65020506 108.99331871 -35.33593548 99.6036289 -48 92 C-47.44567192 87.47718684 -46.27038101 84.09639286 -44.15625 80.0703125 C-43.57375488 78.95309814 -42.99125977 77.83588379 -42.39111328 76.68481445 C-41.76105039 75.49804596 -41.13067305 74.31144436 -40.5 73.125 C-39.85742669 71.90153961 -39.21533961 70.67782372 -38.57373047 69.45385742 C-34.85335295 62.38026582 -31.02749882 55.37225254 -27.05053711 48.43945312 C-24.55972784 44.07487201 -22.27674164 39.63557385 -20.0625 35.125 C-17.13268388 29.16112753 -14.03875755 23.30906429 -10.8125 17.5 C-10.40845947 16.77055176 -10.00441895 16.04110352 -9.58813477 15.28955078 C-2.34619585 2.34619585 -2.34619585 2.34619585 0 0 Z " fill="#0A1E3D" transform="translate(109,37)"/>
<path d="M0 0 C6.2700638 3.62519976 10.1326384 9.23749438 12.01953125 16.16796875 C13.02137347 22.03442627 11.88660065 26.02471819 8.7734375 31.07421875 C4.17840686 37.43488169 -0.82724366 40.85962041 -8.6015625 42.38671875 C-16.42590115 43.11119455 -22.91781465 41.08376975 -28.9765625 36.13671875 C-33.57764564 31.75560771 -35.67481534 27.36948735 -36.0390625 21.01171875 C-35.7655096 14.32107086 -33.34764791 8.64065361 -28.4140625 4.07421875 C-19.33070501 -2.89357044 -10.5750662 -4.6367598 0 0 Z " fill="#E1BD62" transform="translate(64.6015625,154.61328125)"/>
<path d="M0 0 C7.47510614 -0.4418782 12.95188746 -0.73330547 19 4 C21.1518868 6.99392946 21 8.13907349 21 12 C21.99 12 22.98 12 24 12 C24.66 13.65 25.32 15.3 26 17 C26.33 17 26.66 17 27 17 C28.03252021 28.47244677 28.03252021 28.47244677 24.3125 33.5625 C21.84812403 36.34579521 19.50710467 38.61561658 16 40 C13.01138396 39.72830763 10.62780925 38.40775496 8 37 C9.3125 35.5 9.3125 35.5 11 34 C11.99 34 12.98 34 14 34 C13.67 33.01 13.34 32.02 13 31 C13.62390625 30.81695312 14.2478125 30.63390625 14.890625 30.4453125 C17.34008964 29.08337797 17.34008964 29.08337797 18.046875 25.7421875 C18.27890625 24.46601563 18.5109375 23.18984375 18.75 21.875 C18.99234375 20.59367187 19.2346875 19.31234375 19.484375 17.9921875 C19.65453125 17.00476563 19.8246875 16.01734375 20 15 C19.34 15 18.68 15 18 15 C17.96261719 15.61488281 17.92523438 16.22976562 17.88671875 16.86328125 C17.82097656 17.67152344 17.75523438 18.47976562 17.6875 19.3125 C17.62949219 20.11300781 17.57148437 20.91351563 17.51171875 21.73828125 C16.91793306 24.36272334 16.04219706 25.30820672 14 27 C13.34 25.68 12.68 24.36 12 23 C11.01 23.99 10.02 24.98 9 26 C8.34 25.67 7.68 25.34 7 25 C7.66 24.01 8.32 23.02 9 22 C10.01717454 17.27677213 10.3594276 12.68247284 9 8 C8.2575 7.87625 7.515 7.7525 6.75 7.625 C4.19858515 7.04513299 2.2732427 6.26291261 0 5 C0.66 4.67 1.32 4.34 2 4 C0.35 3.67 -1.3 3.34 -3 3 C-2.01 2.67 -1.02 2.34 0 2 C0 1.34 0 0.68 0 0 Z " fill="#C59B3B" transform="translate(48,154)"/>
<path d="M0 0 C6.28876415 3.63601185 10.06081248 9.22529824 12.04296875 16.1328125 C12.61474237 19.75823421 12.11580179 22.7998973 11.3984375 26.38671875 C11.0684375 26.38671875 10.7384375 26.38671875 10.3984375 26.38671875 C10.34945312 25.76023438 10.30046875 25.13375 10.25 24.48828125 C10.17523438 23.67101562 10.10046875 22.85375 10.0234375 22.01171875 C9.91902344 20.79355469 9.91902344 20.79355469 9.8125 19.55078125 C9.56951162 17.18337684 9.56951162 17.18337684 7.3984375 15.38671875 C7.3984375 14.06671875 7.3984375 12.74671875 7.3984375 11.38671875 C6.4084375 11.38671875 5.4184375 11.38671875 4.3984375 11.38671875 C3.14178772 8.48071614 2.3984375 6.59067291 2.3984375 3.38671875 C1.6146875 3.07734375 0.8309375 2.76796875 0.0234375 2.44921875 C-2.6015625 1.38671875 -2.6015625 1.38671875 -4.6015625 0.38671875 C-6.6390388 0.15813761 -8.68196553 -0.02352403 -10.7265625 -0.17578125 C-12.37011719 -0.30146484 -12.37011719 -0.30146484 -14.046875 -0.4296875 C-14.88992187 -0.49027344 -15.73296875 -0.55085937 -16.6015625 -0.61328125 C-16.6015625 0.04671875 -16.6015625 0.70671875 -16.6015625 1.38671875 C-15.6115625 2.04671875 -14.6215625 2.70671875 -13.6015625 3.38671875 C-13.9315625 3.71671875 -14.2615625 4.04671875 -14.6015625 4.38671875 C-12.9309375 4.97453125 -12.9309375 4.97453125 -11.2265625 5.57421875 C-8.45667759 6.7629143 -7.73851849 7.16416527 -6.1015625 9.82421875 C-5.58860027 12.4531502 -5.680115 13.89881051 -6.6015625 16.38671875 C-7.9215625 15.72671875 -9.2415625 15.06671875 -10.6015625 14.38671875 C-10.6015625 12.73671875 -10.6015625 11.08671875 -10.6015625 9.38671875 C-11.43300781 9.38671875 -12.26445313 9.38671875 -13.12109375 9.38671875 C-25.6015625 9.38671875 -25.6015625 9.38671875 -27.6015625 8.38671875 C-27.9315625 9.70671875 -28.2615625 11.02671875 -28.6015625 12.38671875 C-29.2615625 12.38671875 -29.9215625 12.38671875 -30.6015625 12.38671875 C-31.64715503 18.97395168 -31.43448664 23.97905834 -29.6015625 30.38671875 C-27.9515625 30.71671875 -26.3015625 31.04671875 -24.6015625 31.38671875 C-24.6015625 32.37671875 -24.6015625 33.36671875 -24.6015625 34.38671875 C-25.2615625 34.38671875 -25.9215625 34.38671875 -26.6015625 34.38671875 C-26.2715625 35.04671875 -25.9415625 35.70671875 -25.6015625 36.38671875 C-23.07423015 37.04226994 -23.07423015 37.04226994 -20.6015625 37.38671875 C-20.6015625 38.37671875 -20.6015625 39.36671875 -20.6015625 40.38671875 C-26.94038564 39.14987521 -29.93211499 35.3632254 -33.6015625 30.38671875 C-36.17962888 26.01521489 -36.23729866 21.33580407 -35.6015625 16.38671875 C-33.46951575 8.63730332 -29.28242022 4.08915639 -22.4296875 0.1328125 C-14.4909329 -3.79550228 -8.00811211 -3.51124916 0 0 Z " fill="#D4AC4E" transform="translate(64.6015625,154.61328125)"/>
<path d="M0 0 C0.66 0.33 1.32 0.66 2 1 C2 1.66 2 2.32 2 3 C2.99 3 3.98 3 5 3 C5.66 4.65 6.32 6.3 7 8 C7.33 8 7.66 8 8 8 C9.03252021 19.47244677 9.03252021 19.47244677 5.3125 24.5625 C2.84812403 27.34579521 0.50710467 29.61561658 -3 31 C-5.98861604 30.72830763 -8.37219075 29.40775496 -11 28 C-9.6875 26.5 -9.6875 26.5 -8 25 C-7.01 25 -6.02 25 -5 25 C-5.33 24.01 -5.66 23.02 -6 22 C-5.37738281 21.79761719 -4.75476562 21.59523437 -4.11328125 21.38671875 C-1.03369247 19.3659165 -0.9494022 17.35310432 -0.1875 13.8125 C0.84466135 8.80707238 1.26382184 4.94039448 0 0 Z " fill="#B08222" transform="translate(67,163)"/>
<path d="M0 0 C0.66 0.33 1.32 0.66 2 1 C1.360625 1.20625 0.72125 1.4125 0.0625 1.625 C-2.33452489 2.88184267 -2.33452489 2.88184267 -2.6875 6 C-2.8421875 7.485 -2.8421875 7.485 -3 9 C-3.33 9.66 -3.66 10.32 -4 11 C-4.66 11 -5.32 11 -6 11 C-7.04559253 17.58723293 -6.83292414 22.59233959 -5 29 C-3.35 29.33 -1.7 29.66 0 30 C0 30.99 0 31.98 0 33 C-0.66 33 -1.32 33 -2 33 C-1.67 33.66 -1.34 34.32 -1 35 C1.52733235 35.65555119 1.52733235 35.65555119 4 36 C4 36.99 4 37.98 4 39 C-2.33882314 37.76315646 -5.33055249 33.97650665 -9 29 C-11.57806638 24.62849614 -11.63573616 19.94908532 -11 15 C-9.12365434 8.17998914 -5.68701714 4.07356565 0 0 Z " fill="#E3D397" transform="translate(40,156)"/>
<path d="M0 0 C3.40312738 1.05875074 6.01353231 2.00902154 9 4 C9.33 3.34 9.66 2.68 10 2 C12.0625 1.375 12.0625 1.375 14 1 C14 1.66 14 2.32 14 3 C14.99 3.33 15.98 3.66 17 4 C16.01 4.33 15.02 4.66 14 5 C14.55985596 4.9592334 15.11971191 4.9184668 15.6965332 4.87646484 C18.23454146 4.69801731 20.77334878 4.53633235 23.3125 4.375 C24.63411133 4.27832031 24.63411133 4.27832031 25.98242188 4.1796875 C26.82998047 4.128125 27.67753906 4.0765625 28.55078125 4.0234375 C29.72120972 3.94488525 29.72120972 3.94488525 30.9152832 3.86474609 C33 4 33 4 36 6 C26.20437614 9.56977182 17.18712765 10.36761214 7.171875 7.06640625 C3.72064142 5.37182573 2.11374008 3.17061012 0 0 Z " fill="#303B52" transform="translate(227,192)"/>
<path d="M0 0 C8.80349345 8.31441048 8.80349345 8.31441048 9.1875 13.5625 C7.40288892 17.22564906 4.40892253 18.90836346 1 21 C-1 20 -1 20 -2 17 C-1.34 17 -0.68 17 0 17 C0.33 14.03 0.66 11.06 1 8 C0.34 7.67 -0.32 7.34 -1 7 C-1.625 4.9375 -1.625 4.9375 -2 3 C-1.34 3 -0.68 3 0 3 C0 2.01 0 1.02 0 0 Z " fill="#071831" transform="translate(264,176)"/>
<path d="M0 0 C5.41709384 4.49395613 8.89739625 10.00876524 10 17 C9.93929417 19.80647737 9.5539676 22.23016198 9 25 C8.67 25 8.34 25 8 25 C7.95101562 24.37351563 7.90203125 23.74703125 7.8515625 23.1015625 C7.77679688 22.28429687 7.70203125 21.46703125 7.625 20.625 C7.52058594 19.40683594 7.52058594 19.40683594 7.4140625 18.1640625 C7.17107412 15.79665809 7.17107412 15.79665809 5 14 C5 12.68 5 11.36 5 10 C4.01 10 3.02 10 2 10 C0.74335022 7.09399739 0 5.20395416 0 2 C-0.78375 1.690625 -1.5675 1.38125 -2.375 1.0625 C-5 0 -5 0 -7 -1 C-13.03326169 -1.30708218 -19.08160618 -1.31519863 -25 0 C-24 -2 -24 -2 -21.4375 -3.125 C-13.49836295 -5.14587125 -7.07481356 -4.09048667 0 0 Z " fill="#D5C191" transform="translate(67,156)"/>
<path d="M0 0 C1.66666667 0.66666667 3.33333333 1.33333333 5 2 C5.66 1.67 6.32 1.34 7 1 C7 1.99 7 2.98 7 4 C12.37625234 4.84888195 16.65370398 5.0024305 22 4 C22.33 4.99 22.66 5.98 23 7 C16.45452003 9.13729958 10.79695149 9.64774582 4 8 C3.67 7.01 3.34 6.02 3 5 C0.49552484 3.78130071 0.49552484 3.78130071 -2 3 C-2 2.34 -2 1.68 -2 1 C-1.34 0.67 -0.68 0.34 0 0 Z " fill="#C4A45F" transform="translate(40,188)"/>
<path d="M0 0 C0.61875 0.350625 1.2375 0.70125 1.875 1.0625 C2.57625 1.371875 3.2775 1.68125 4 2 C4.66 1.67 5.32 1.34 6 1 C6 1.66 6 2.32 6 3 C6.99 3.33 7.98 3.66 9 4 C8.7525 4.9075 8.505 5.815 8.25 6.75 C7.64316722 10.03687284 7.64316722 10.03687284 9.6875 12.3125 C11.93455902 13.95224577 13.33632651 14.44889514 16 15 C16.33 15.66 16.66 16.32 17 17 C15.68 17 14.36 17 13 17 C13 17.66 13 18.32 13 19 C13.66 19 14.32 19 15 19 C15.33 20.65 15.66 22.3 16 24 C16.66 24 17.32 24 18 24 C18.33 23.34 18.66 22.68 19 22 C19 24.31 19 26.62 19 29 C14.76390089 25.11248865 11.88924222 20.97598744 8.9375 16.0625 C8.09328088 14.67787721 7.24824049 13.29375479 6.40234375 11.91015625 C6.00128418 11.24902832 5.60022461 10.58790039 5.18701172 9.90673828 C4.06764934 8.10866749 2.89389001 6.36424553 1.69140625 4.62109375 C0 2 0 2 0 0 Z " fill="#778194" transform="translate(176,119)"/>
<path d="M0 0 C-1 1 -1 1 -4.96899414 1.11352539 C-6.74105607 1.1133662 -8.5131226 1.10766785 -10.28515625 1.09765625 C-11.21597519 1.0962413 -12.14679413 1.09482635 -13.1058197 1.09336853 C-16.09141191 1.08775172 -19.07693029 1.0751964 -22.0625 1.0625 C-24.08137913 1.05748716 -26.10025943 1.05292388 -28.11914062 1.04882812 C-33.07945572 1.03777683 -38.03971532 1.02050095 -43 1 C-43 1.66 -43 2.32 -43 3 C-41.35 3 -39.7 3 -38 3 C-37.87625 3.886875 -37.7525 4.77375 -37.625 5.6875 C-37.0494585 8.73786997 -36.23412316 11.16877629 -35 14 C-34.33333333 15.66666667 -33.66666667 17.33333333 -33 19 C-36.1043363 16.08796772 -38.44983398 13.07803602 -40.75 9.5 C-41.36359375 8.5615625 -41.9771875 7.623125 -42.609375 6.65625 C-44 4 -44 4 -44 0 C-38.05533775 -0.16738578 -32.11054603 -0.32796884 -26.16552734 -0.48217773 C-24.14203921 -0.53563266 -22.11859977 -0.59096466 -20.09521484 -0.64819336 C-17.19118757 -0.73000696 -14.28705356 -0.80512562 -11.3828125 -0.87890625 C-10.47443634 -0.90594131 -9.56606018 -0.93297638 -8.63015747 -0.96083069 C-7.36907669 -0.99097511 -7.36907669 -0.99097511 -6.08251953 -1.02172852 C-4.96999313 -1.05170677 -4.96999313 -1.05170677 -3.83499146 -1.08229065 C-2 -1 -2 -1 0 0 Z " fill="#A9B1BE" transform="translate(209,100)"/>
<path d="M0 0 C0.99 0.33 1.98 0.66 3 1 C2.67 1.66 2.34 2.32 2 3 C1.01 3.33 0.02 3.66 -1 4 C-2.02281518 6.09719872 -2.02281518 6.09719872 -2.6875 8.5625 C-2.93886719 9.38878906 -3.19023438 10.21507812 -3.44921875 11.06640625 C-3.63097656 11.70449219 -3.81273438 12.34257813 -4 13 C-3.01 12.34 -2.02 11.68 -1 11 C-1.33 13.64 -1.66 16.28 -2 19 C-3.98 19.33 -5.96 19.66 -8 20 C-8.33 19.34 -8.66 18.68 -9 18 C-9.33 19.65 -9.66 21.3 -10 23 C-10.99 23.33 -11.98 23.66 -13 24 C-11.49622155 18.80215711 -9.17231165 14.41160434 -6.5 9.75 C-5.89478516 8.67105469 -5.89478516 8.67105469 -5.27734375 7.5703125 C-2.26968344 2.26968344 -2.26968344 2.26968344 0 0 Z " fill="#30405D" transform="translate(109,37)"/>
<path d="M0 0 C0.99 0.33 1.98 0.66 3 1 C3.33 2.65 3.66 4.3 4 6 C5.32 6.33 6.64 6.66 8 7 C8.33 8.65 8.66 10.3 9 12 C10.32 12.33 11.64 12.66 13 13 C13.33 14.65 13.66 16.3 14 18 C14.66 18 15.32 18 16 18 C16.33 17.34 16.66 16.68 17 16 C17.33 17.65 17.66 19.3 18 21 C17.01 20.67 16.02 20.34 15 20 C16.29299694 22.88437779 17.65941363 24.87219421 20 27 C19.34 27.33 18.68 27.66 18 28 C18 27.34 18 26.68 18 26 C17.01 25.67 16.02 25.34 15 25 C13.49780273 23.12988281 13.49780273 23.12988281 11.93359375 20.703125 C11.36576172 19.8265625 10.79792969 18.95 10.21289062 18.046875 C9.62701172 17.12390625 9.04113281 16.2009375 8.4375 15.25 C7.55288086 13.88875 7.55288086 13.88875 6.65039062 12.5 C4.02126054 8.40824806 1.69953193 4.57476399 0 0 Z " fill="#404C66" transform="translate(206,165)"/>
<path d="M0 0 C0.33 0 0.66 0 1 0 C2.03252021 11.47244677 2.03252021 11.47244677 -1.6875 16.5625 C-4.15187597 19.34579521 -6.49289533 21.61561658 -10 23 C-12.3125 22.6875 -12.3125 22.6875 -14 22 C-13.01 21.67 -12.02 21.34 -11 21 C-10.67 20.01 -10.34 19.02 -10 18 C-9.01 18 -8.02 18 -7 18 C-5.05316677 14.39744879 -3.72254681 10.60461063 -2.375 6.75 C-2.14554688 6.1003125 -1.91609375 5.450625 -1.6796875 4.78125 C-1.11747537 3.18831562 -0.55841997 1.59426771 0 0 Z " fill="#A1813E" transform="translate(74,171)"/>
<path d="M0 0 C2.40569331 3.05783908 4.36189615 6.22457996 6.25 9.625 C6.79140625 10.58664063 7.3328125 11.54828125 7.890625 12.5390625 C8.25671875 13.35117188 8.6228125 14.16328125 9 15 C7.60804085 17.7839183 5.84424221 17.97898997 3 19 C2.33333333 15.66666667 1.66666667 12.33333333 1 9 C0.81308594 8.14792969 0.62617188 7.29585937 0.43359375 6.41796875 C0 4 0 4 0 0 Z " fill="#132037" transform="translate(172,149)"/>
<path d="M0 0 C1.5 1.3125 1.5 1.3125 3 3 C3 3.99 3 4.98 3 6 C-7.09072775 8.29915316 -17.79183485 6.84564682 -28 6 C-28 5.67 -28 5.34 -28 5 C-19.09 5 -10.18 5 -1 5 C-0.67 3.35 -0.34 1.7 0 0 Z " fill="#9599A2" transform="translate(197,195)"/>
<path d="M0 0 C0 4.0521288 -1.50488362 5.09105379 -4.1875 8.0625 C-4.96480469 8.94035156 -5.74210938 9.81820312 -6.54296875 10.72265625 C-8.99164656 12.99225746 -10.84446143 14.00793903 -14 15 C-14 14.01 -14 13.02 -14 12 C-9.77142857 8 -9.77142857 8 -6 8 C-6 5.69 -6 3.38 -6 1 C-4 0 -4 0 0 0 Z " fill="#535A6A" transform="translate(254,113)"/>
<path d="M0 0 C2.81158409 2.49824489 4.44837831 5.278476 6.25 8.5625 C6.79140625 9.53316406 7.3328125 10.50382813 7.890625 11.50390625 C8.25671875 12.32761719 8.6228125 13.15132812 9 14 C8 16 8 16 6 17 C5.67 16.34 5.34 15.68 5 15 C4.34 15 3.68 15 3 15 C2.814375 14.13375 2.814375 14.13375 2.625 13.25 C2.10310693 10.99837444 2.10310693 10.99837444 0.9375 9.1875 C-0.38497859 6.10171663 -0.12750849 3.31522068 0 0 Z " fill="#444E64" transform="translate(156,121)"/>
<path d="M0 0 C1.98 0.33 3.96 0.66 6 1 C5.67 2.32 5.34 3.64 5 5 C4.18039795 4.79431396 4.18039795 4.79431396 3.34423828 4.58447266 C-4.45685572 2.81084717 -12.14883333 2.56490873 -20.125 2.375 C-21.4765848 2.33671699 -22.82814791 2.29765973 -24.1796875 2.2578125 C-27.45299391 2.16428946 -30.72630557 2.07853802 -34 2 C-34 1.67 -34 1.34 -34 1 C-29.4793335 0.97531143 -24.9587061 0.95714551 -20.43798828 0.94506836 C-18.89956987 0.94003448 -17.36115625 0.93320692 -15.82275391 0.92456055 C-13.61359474 0.91245361 -11.40449874 0.90676231 -9.1953125 0.90234375 C-8.50567413 0.89718246 -7.81603577 0.89202118 -7.10549927 0.88670349 C-2.22774341 0.88612829 -2.22774341 0.88612829 0 2 C0 1.34 0 0.68 0 0 Z " fill="#838994" transform="translate(207,73)"/>
<path d="M0 0 C4.97231851 2.19498745 8.68232996 5.73442423 12 10 C12.5 13.5 12.5 13.5 12 16 C11.505 15.319375 11.01 14.63875 10.5 13.9375 C7.80042889 10.76550394 4.86823265 8.32106704 1.609375 5.74609375 C0 4 0 4 0 0 Z " fill="#3B4657" transform="translate(240,47)"/>
<path d="M0 0 C0.66 0 1.32 0 2 0 C2.66 0.99 3.32 1.98 4 3 C4.99 3 5.98 3 7 3 C7.61875 3.639375 8.2375 4.27875 8.875 4.9375 C11.28839022 7.27990815 12.7163874 7.63515416 16 8 C15.67 8.99 15.34 9.98 15 11 C17.475 11.495 17.475 11.495 20 12 C17.5129453 12.91154493 16.36559797 13.13959195 13.8515625 12.1796875 C1.68313953 5.0494186 1.68313953 5.0494186 0 0 Z " fill="#556074" transform="translate(145,186)"/>
<path d="M0 0 C0.33 0 0.66 0 1 0 C1 1.98 1 3.96 1 6 C1.66 6 2.32 6 3 6 C2.67 7.65 2.34 9.3 2 11 C2.99 11.33 3.98 11.66 5 12 C8.18404569 18.02694363 8.18404569 18.02694363 7.578125 21.23046875 C7.38734375 21.81441406 7.1965625 22.39835937 7 23 C1.83332814 15.23027209 -0.37535071 9.38376767 0 0 Z " fill="#5F6979" transform="translate(142,37)"/>
<path d="M0 0 C0.33 0 0.66 0 1 0 C0.979375 0.763125 0.95875 1.52625 0.9375 2.3125 C0.87057159 5.10185786 0.87057159 5.10185786 2 8 C1.01 8 0.02 8 -1 8 C-1.33 9.32 -1.66 10.64 -2 12 C-4.31 11.34 -6.62 10.68 -9 10 C-7.6875 8.5 -7.6875 8.5 -6 7 C-5.01 7 -4.02 7 -3 7 C-3.33 6.01 -3.66 5.02 -4 4 C-2.68 3.34 -1.36 2.68 0 2 C0 1.34 0 0.68 0 0 Z " fill="#C1953B" transform="translate(65,181)"/>
<path d="M0 0 C6.52050587 -0.2661431 12.05670859 0.02835429 18 3 C18.625 5.0625 18.625 5.0625 19 7 C18.01 7.33 17.02 7.66 16 8 C16 7.34 16 6.68 16 6 C12.37 5.01 8.74 4.02 5 3 C5 2.67 5 2.34 5 2 C3.35 1.67 1.7 1.34 0 1 C0 0.67 0 0.34 0 0 Z " fill="#AD8731" transform="translate(49,155)"/>
<path d="M0 0 C2.475 0.495 2.475 0.495 5 1 C5 0.67 5 0.34 5 0 C7.31 0.33 9.62 0.66 12 1 C12 2.66666667 12 4.33333333 12 6 C13.65 6.33 15.3 6.66 17 7 C14.0877003 8.21992215 13.03122531 8.01199085 10.01953125 6.85546875 C8.43205078 6.02982422 8.43205078 6.02982422 6.8125 5.1875 C5.21341797 4.37345703 5.21341797 4.37345703 3.58203125 3.54296875 C1 2 1 2 0 0 Z " fill="#4C5767" transform="translate(156,66)"/>
<path d="M0 0 C0.66 0.66 1.32 1.32 2 2 C1.34 2 0.68 2 0 2 C0 2.66 0 3.32 0 4 C1.32 4.66 2.64 5.32 4 6 C3 8 3 8 1 10 C1.99 10.33 2.98 10.66 4 11 C3.01 12.485 3.01 12.485 2 14 C0.96674014 12.57140593 -0.05127634 11.13177617 -1.0625 9.6875 C-1.63097656 8.88699219 -2.19945313 8.08648437 -2.78515625 7.26171875 C-3.18605469 6.51535156 -3.58695312 5.76898438 -4 5 C-3 2 -3 2 0 0 Z " fill="#38465E" transform="translate(78,135)"/>
<path d="M0 0 C0.99 0.66 1.98 1.32 3 2 C3.3984375 4.71484375 3.3984375 4.71484375 3.375 7.9375 C3.38273438 8.99839844 3.39046875 10.05929688 3.3984375 11.15234375 C3 14 3 14 1.64453125 15.8359375 C-0.49351797 17.34933101 -2.42971449 17.65266412 -5 18 C-4.175 17.2575 -3.35 16.515 -2.5 15.75 C1.39274936 11.21028666 0.4101783 5.6331153 0 0 Z " fill="#5B677B" transform="translate(215,81)"/>
<path d="M0 0 C0.66 0.33 1.32 0.66 2 1 C2 2.32 2 3.64 2 5 C1.01 5 0.02 5 -1 5 C-1 6.32 -1 7.64 -1 9 C-3.5 11.25 -3.5 11.25 -6 13 C-5.4574852 8.44287564 -4.3106498 4.97431766 -2 1 C-1.34 0.67 -0.68 0.34 0 0 Z " fill="#111A34" transform="translate(110,39)"/>
<path d="M0 0 C3.29078593 2.79716804 5.06305458 6.19528578 7 10 C6.67 10.66 6.34 11.32 6 12 C4.35 11.67 2.7 11.34 1 11 C-0.28317892 7.15046324 -0.06643637 4.05261865 0 0 Z " fill="#3D485F" transform="translate(181,166)"/>
<path d="M0 0 C0.61875 0.350625 1.2375 0.70125 1.875 1.0625 C2.57625 1.371875 3.2775 1.68125 4 2 C4.66 1.67 5.32 1.34 6 1 C6 1.66 6 2.32 6 3 C6.99 3.33 7.98 3.66 9 4 C8.67 5.32 8.34 6.64 8 8 C6.68 8 5.36 8 4 8 C0 2.88888889 0 2.88888889 0 0 Z " fill="#515A6D" transform="translate(176,119)"/>
<path d="M0 0 C0.99 0.33 1.98 0.66 3 1 C2.67 1.66 2.34 2.32 2 3 C1.01 3.33 0.02 3.66 -1 4 C-2.36306396 6.75281216 -2.36306396 6.75281216 -3.5 10 C-4.71875 13.3125 -4.71875 13.3125 -6 16 C-6.99 16.33 -7.98 16.66 -9 17 C-7.28295898 10.91230912 -4.52107613 4.52107613 0 0 Z " fill="#727B89" transform="translate(109,37)"/>
<path d="M0 0 C1.21386936 3.64160808 0.6674695 4.33165469 -0.9375 7.6875 C-1.31777344 8.49574219 -1.69804687 9.30398437 -2.08984375 10.13671875 C-2.39019531 10.75160156 -2.69054687 11.36648437 -3 12 C-5.60334924 9.28817788 -5.99456691 8.10866187 -6.1875 4.25 C-6.125625 3.1775 -6.06375 2.105 -6 1 C-5.67 1.66 -5.34 2.32 -5 3 C-3.02463255 2.65213292 -3.02463255 2.65213292 -1 2 C-0.67 1.34 -0.34 0.68 0 0 Z " fill="#4C5769" transform="translate(259,101)"/>
<path d="M0 0 C2.44821444 1.91599391 2.99324823 2.97243029 3.75 6.0625 C4 9 4 9 3 11 C2.34 11 1.68 11 1 11 C-0.98362069 8.08291076 -0.9876191 6.87619096 -0.625 3.25 C-0.41875 2.1775 -0.2125 1.105 0 0 Z " fill="#162039" transform="translate(193,188)"/>
<path d="M0 0 C2.31 0.66 4.62 1.32 7 2 C7 2.99 7 3.98 7 5 C6.34 5 5.68 5 5 5 C5.33 5.66 5.66 6.32 6 7 C8.52733235 7.65555119 8.52733235 7.65555119 11 8 C11 8.99 11 9.98 11 11 C8.3125 10.5625 8.3125 10.5625 5 9 C2.98949088 6.15827264 1.46579636 3.15211076 0 0 Z " fill="#CDB270" transform="translate(33,184)"/>
<path d="M0 0 C1.8125 0.875 1.8125 0.875 4.8125 2.875 C3.265625 3.308125 3.265625 3.308125 1.6875 3.75 C-1.63757997 4.69808798 -4.91501453 5.75756594 -8.1875 6.875 C-8.1875 5.885 -8.1875 4.895 -8.1875 3.875 C-3.22607567 -0.18434718 -3.22607567 -0.18434718 0 0 Z " fill="#C1A551" transform="translate(46.1875,155.125)"/>
<path d="M0 0 C1.04127245 3.3131396 1.18574123 4.60198308 -0.3125 7.8125 C-0.869375 8.534375 -1.42625 9.25625 -2 10 C-2.66 10 -3.32 10 -4 10 C-4.6875 6.6875 -4.6875 6.6875 -5 3 C-3.42599605 0.67647035 -2.82844233 0 0 0 Z " fill="#101B32" transform="translate(89,152)"/>
<path d="M0 0 C1.32 0.33 2.64 0.66 4 1 C4.12375 1.721875 4.2475 2.44375 4.375 3.1875 C4.99483212 5.97674456 5.88415664 8.37448621 7 11 C7.66666667 12.66666667 8.33333333 14.33333333 9 16 C3.87480935 11.22827077 1.72616576 6.77188104 0 0 Z " fill="#606B7A" transform="translate(167,103)"/>
<path d="M0 0 C0.66 0.33 1.32 0.66 2 1 C1.9375 3.1875 1.9375 3.1875 1 6 C-1.1717219 7.93157957 -3.52601047 9.48201687 -6 11 C-8 10 -8 10 -9 7 C-5.535 6.505 -5.535 6.505 -2 6 C-2 5.01 -2 4.02 -2 3 C-1.34 2.67 -0.68 2.34 0 2 C0 1.34 0 0.68 0 0 Z " fill="#626C78" transform="translate(271,186)"/>
<path d="M0 0 C0.33 0.66 0.66 1.32 1 2 C1.66 2.33 2.32 2.66 3 3 C-0.99613521 6.71069698 -3.37082652 8.59791618 -9 9 C-8.01 8.34 -7.02 7.68 -6 7 C-5.67 6.01 -5.34 5.02 -5 4 C-4.01 4 -3.02 4 -2 4 C-1.34 2.68 -0.68 1.36 0 0 Z " fill="#A68B51" transform="translate(69,185)"/>
<path d="M0 0 C3.67882073 3.28466137 5.75150101 6.66360908 8 11 C8 11.66 8 12.32 8 13 C6.68 12.67 5.36 12.34 4 12 C3.67 9.69 3.34 7.38 3 5 C1.68 5 0.36 5 -1 5 C-0.67 3.35 -0.34 1.7 0 0 Z " fill="#646E7E" transform="translate(256,163)"/>
<path d="M0 0 C0.66 0.33 1.32 0.66 2 1 C2 1.99 2 2.98 2 4 C2.99 3.01 3.98 2.02 5 1 C3.74194623 5.50802601 2.09592835 8.4912812 -1 12 C-1.79953138 8.71303767 -2.09658936 7.28976808 -1 4 C-0.65772583 2.66893378 -0.32248257 1.33599921 0 0 Z " fill="#5A6272" transform="translate(91,145)"/>
<path d="M0 0 C1.67542976 0.28604898 3.34385343 0.61781233 5 1 C3.02 3.97 3.02 3.97 1 7 C-0.16945792 6.19152271 -1.33550461 5.37810888 -2.5 4.5625 C-3.1496875 4.11003906 -3.799375 3.65757812 -4.46875 3.19140625 C-4.9740625 2.79824219 -5.479375 2.40507812 -6 2 C-6 1.67 -6 1.34 -6 1 C-4.7934375 1.0309375 -4.7934375 1.0309375 -3.5625 1.0625 C-1.06645115 1.29633621 -1.06645115 1.29633621 0 0 Z " fill="#25344A" transform="translate(73,131)"/>
<path d="M0 0 C2.97069541 2.54631035 4.4775751 5.42230149 6 9 C5.67 9.66 5.34 10.32 5 11 C4.01 11 3.02 11 2 11 C1.67 9.35 1.34 7.7 1 6 C0.01 6.495 0.01 6.495 -1 7 C-0.67 4.69 -0.34 2.38 0 0 Z " fill="#545F72" transform="translate(150,110)"/>
<path d="M0 0 C0.5775 0.61875 1.155 1.2375 1.75 1.875 C3.83069418 4.05293915 3.83069418 4.05293915 6.1875 5.0625 C8 6 8 6 9 9 C4.62140745 8.49477778 2.18348776 5.82172778 -1 3 C-0.67 2.01 -0.34 1.02 0 0 Z " fill="#0E192B" transform="translate(153,59)"/>
<path d="M0 0 C5.65394631 -0.34615998 9.03006806 0.56574762 14 3 C11.11788698 3.96070434 9.30149956 4.10581883 6.3125 4.0625 C5.10013672 4.04896484 5.10013672 4.04896484 3.86328125 4.03515625 C2.94095703 4.01775391 2.94095703 4.01775391 2 4 C3 2 3 2 4 1 C2.68 0.67 1.36 0.34 0 0 Z " fill="#4D556C" transform="translate(222,40)"/>
<path d="M0 0 C0.66 0 1.32 0 2 0 C2.66 1.65 3.32 3.3 4 5 C3.34 5 2.68 5 2 5 C1.67 6.65 1.34 8.3 1 10 C0.34 10 -0.32 10 -1 10 C-1.33 10.66 -1.66 11.32 -2 12 C-1 3.42857143 -1 3.42857143 0 0 Z " fill="#BC8A2A" transform="translate(68,172)"/>
<path d="M0 0 C3.71599191 -0.20086443 4.77208445 -0.1519437 8 2 C7.01 2.99 6.02 3.98 5 5 C4.34 4.01 3.68 3.02 3 2 C1.35 4.97 -0.3 7.94 -2 11 C-3 9 -3 9 -2.44140625 6.8359375 C-2.15136719 6.02382812 -1.86132812 5.21171875 -1.5625 4.375 C-1.27503906 3.55773437 -0.98757812 2.74046875 -0.69140625 1.8984375 C-0.46324219 1.27195312 -0.23507813 0.64546875 0 0 Z " fill="#747F8D" transform="translate(106,121)"/>
<path d="M0 0 C0.33 0 0.66 0 1 0 C1 2.64 1 5.28 1 8 C0.34 8 -0.32 8 -1 8 C-1.33 8.99 -1.66 9.98 -2 11 C-2.99 11 -3.98 11 -5 11 C-3.77782954 6.95743617 -2.37245704 3.50711041 0 0 Z " fill="#596474" transform="translate(89,72)"/>
<path d="M0 0 C2.40785992 3.2104799 3.68197635 5.35008834 5 9 C3.35 9.33 1.7 9.66 0 10 C0 6.7 0 3.4 0 0 Z " fill="#414A5D" transform="translate(137,86)"/>
<path d="M0 0 C0.99 0.33 1.98 0.66 3 1 C3.33 2.65 3.66 4.3 4 6 C5.32 6.33 6.64 6.66 8 7 C8.33 9.31 8.66 11.62 9 14 C5.15237434 10.5798883 2.39365978 6.53225744 0 2 C0 1.34 0 0.68 0 0 Z " fill="#737D8C" transform="translate(206,165)"/>
<path d="M0 0 C2.97246802 2.54782974 4.41535288 5.45340883 6 9 C6 9.66 6 10.32 6 11 C5.34 11 4.68 11 4 11 C4 10.34 4 9.68 4 9 C2.68 8.67 1.36 8.34 0 8 C0 5.36 0 2.72 0 0 Z " fill="#5C6471" transform="translate(144,99)"/>
<path d="M0 0 C2.64 0.99 5.28 1.98 8 3 C7.34 4.32 6.68 5.64 6 7 C3.5625 6.3125 3.5625 6.3125 1 5 C0.1875 2.375 0.1875 2.375 0 0 Z " fill="#07142E" transform="translate(140,174)"/>
<path d="M0 0 C3.2626876 3.08632611 6.02235218 5.93483504 8 10 C7.67 10.66 7.34 11.32 7 12 C3.31959133 9.67553136 1.7005094 7.92034525 0.6875 3.75 C0.460625 2.5125 0.23375 1.275 0 0 Z " fill="#79808C" transform="translate(245,146)"/>
<path d="M0 0 C0.99 0 1.98 0 3 0 C1.68938409 4.23429756 0.05643741 8.07407404 -2 12 C-2.33 12 -2.66 12 -3 12 C-3 9.69 -3 7.38 -3 5 C-2.01 5 -1.02 5 0 5 C0 3.35 0 1.7 0 0 Z " fill="#585F6E" transform="translate(99,134)"/>
<path d="M0 0 C2.64 0.66 5.28 1.32 8 2 C7.67 2.99 7.34 3.98 7 5 C8.65 5.33 10.3 5.66 12 6 C9.0201445 7.26070809 7.97683969 6.99119908 4.875 5.8125 C2.00950474 4.00599212 1.0799689 3.13190982 0 0 Z " fill="#424B5D" transform="translate(153,192)"/>
<path d="M0 0 C1.65 1.65 3.3 3.3 5 5 C4.67 5.66 4.34 6.32 4 7 C0 7 0 7 -2 6 C-2 5.01 -2 4.02 -2 3 C-1.34 3 -0.68 3 0 3 C0 2.01 0 1.02 0 0 Z " fill="#49556A" transform="translate(264,176)"/>
<path d="M0 0 C3.375 4.5 3.375 4.5 4 8 C2.02 8.66 0.04 9.32 -2 10 C-1.34 6.7 -0.68 3.4 0 0 Z " fill="#465166" transform="translate(177,158)"/>
<path d="M0 0 C0.66 0.99 1.32 1.98 2 3 C1.01 3.33 0.02 3.66 -1 4 C-1.12375 4.7425 -1.2475 5.485 -1.375 6.25 C-1.95486701 8.80141485 -2.73708739 10.7267573 -4 13 C-4.66 13 -5.32 13 -6 13 C-4.58707905 8.1725201 -2.57025846 4.2837641 0 0 Z " fill="#727D8A" transform="translate(67,114)"/>
<path d="M0 0 C2.4375 1.1875 2.4375 1.1875 5 3 C5.8125 5.6875 5.8125 5.6875 6 8 C1.125 6.125 1.125 6.125 0 5 C-0.04063832 3.33382885 -0.042721 1.66611905 0 0 Z " fill="#293442" transform="translate(266,181)"/>
<path d="M0 0 C0.99 0.33 1.98 0.66 3 1 C2.505 1.598125 2.01 2.19625 1.5 2.8125 C-0.28276418 4.97029994 -0.28276418 4.97029994 0 8 C-2.31 7.01 -4.62 6.02 -7 5 C-7 4.34 -7 3.68 -7 3 C-5.68 3.33 -4.36 3.66 -3 4 C-2.01 2.68 -1.02 1.36 0 0 Z " fill="#455264" transform="translate(237,127)"/>
<path d="M0 0 C0.66 0.33 1.32 0.66 2 1 C1.45276317 4.37462715 0.9451 6.08235 -1 9 C-1 8.01 -1 7.02 -1 6 C-1.66 6 -2.32 6 -3 6 C-3.33 5.01 -3.66 4.02 -4 3 C-2.68 2.01 -1.36 1.02 0 0 Z " fill="#05122B" transform="translate(257,98)"/>
<path d="M0 0 C1.32 0 2.64 0 4 0 C4.33 2.97 4.66 5.94 5 9 C1.7457985 6.16569547 0.4793247 4.31392226 0 0 Z " fill="#576171" transform="translate(215,178)"/>
<path d="M0 0 C2.63978826 3.18595135 5.10498388 6.30970546 7 10 C6.67 10.66 6.34 11.32 6 12 C5.01 11.67 4.02 11.34 3 11 C3 9.35 3 7.7 3 6 C2.34 6 1.68 6 1 6 C0.67 4.02 0.34 2.04 0 0 Z " fill="#7F8992" transform="translate(165,137)"/>
<path d="M0 0 C0.66 0 1.32 0 2 0 C2 1.32 2 2.64 2 4 C3.32 4.66 4.64 5.32 6 6 C5.67 6.66 5.34 7.32 5 8 C3.35 8 1.7 8 0 8 C0 5.36 0 2.72 0 0 Z " fill="#08172C" transform="translate(237,137)"/>
<path d="M0 0 C3.0916909 2.52956528 3.90931332 5.22454612 5 9 C3.35 8.67 1.7 8.34 0 8 C0 5.36 0 2.72 0 0 Z " fill="#5D6675" transform="translate(127,68)"/>
<path d="M0 0 C3.36720387 1.39332574 4.9859524 2.9789286 7 6 C5.1875 6.6875 5.1875 6.6875 3 7 C1.25 5.8125 1.25 5.8125 0 4 C0 2.68 0 1.36 0 0 Z " fill="#4B5667" transform="translate(240,47)"/>
<path d="M0 0 C0.66 0.66 1.32 1.32 2 2 C1.67 2.99 1.34 3.98 1 5 C0.34 5 -0.32 5 -1 5 C-1.33 6.98 -1.66 8.96 -2 11 C-2.33 11 -2.66 11 -3 11 C-3 8.36 -3 5.72 -3 3 C-2.34 3 -1.68 3 -1 3 C-0.67 2.01 -0.34 1.02 0 0 Z " fill="#D6B65A" transform="translate(37,164)"/>
<path d="M0 0 C0.66 0.99 1.32 1.98 2 3 C0.12050295 6.57104439 -1.17053157 8.54744301 -5 10 C-5 8 -5 8 -3 6 C-3 5.34 -3 4.68 -3 4 C-2.34 4 -1.68 4 -1 4 C-0.67 2.68 -0.34 1.36 0 0 Z " fill="#081730" transform="translate(71,110)"/>
<path d="M0 0 C1.39195915 4.17587745 -0.17676781 6.13474776 -2 10 C-2.99 10 -3.98 10 -5 10 C-4.1875 6.5625 -4.1875 6.5625 -3 3 C-2.01 2.67 -1.02 2.34 0 2 C0 1.34 0 0.68 0 0 Z " fill="#06152A" transform="translate(99,58)"/>
<path d="M0 0 C3.96 0 7.92 0 12 0 C10.515 1.485 10.515 1.485 9 3 C5.14751405 2.75921963 3.23960066 2.15973378 0 0 Z " fill="#09142D" transform="translate(160,196)"/>
<path d="M0 0 C1 3 1 3 0.0625 5.1875 C-0.4634375 6.0846875 -0.4634375 6.0846875 -1 7 C-1.66 7 -2.32 7 -3 7 C-3.33 7.66 -3.66 8.32 -4 9 C-4 4.31908701 -3.00354129 3.37898396 0 0 Z " fill="#CAB46A" transform="translate(37,160)"/>
<path d="M0 0 C0 1.65 0 3.3 0 5 C-2.4375 4.1875 -2.4375 4.1875 -5 3 C-5.33 2.01 -5.66 1.02 -6 0 C-2.25 -1.125 -2.25 -1.125 0 0 Z " fill="#364250" transform="translate(67,127)"/>
<path d="M0 0 C0.99 0.33 1.98 0.66 3 1 C3.8125 2.9375 3.8125 2.9375 4 5 C3.34 5.66 2.68 6.32 2 7 C1.01 6.34 0.02 5.68 -1 5 C-0.67 3.35 -0.34 1.7 0 0 Z " fill="#08182E" transform="translate(213,73)"/>
<path d="M0 0 C0.33 2.31 0.66 4.62 1 7 C0.01 7.495 0.01 7.495 -1 8 C-4 3.25 -4 3.25 -4 1 C-1 0 -1 0 0 0 Z " fill="#3D485A" transform="translate(128,147)"/>
<path d="M0 0 C0 0.99 0 1.98 0 3 C-1.65 3.66 -3.3 4.32 -5 5 C-5.33 3.68 -5.66 2.36 -6 1 C-4 0 -4 0 0 0 Z " fill="#3B4759" transform="translate(254,113)"/>
<path d="M0 0 C0.66 0 1.32 0 2 0 C2.66 1.98 3.32 3.96 4 6 C3.01 6.66 2.02 7.32 1 8 C1 7.34 1 6.68 1 6 C0.34 5.67 -0.32 5.34 -1 5 C-0.34 5 0.32 5 1 5 C0.67 3.35 0.34 1.7 0 0 Z M3 1 C5 2 5 2 5 2 Z " fill="#0C172D" transform="translate(251,107)"/>
<path d="M0 0 C0.66 0.66 1.32 1.32 2 2 C1.34 2 0.68 2 0 2 C0 4.31 0 6.62 0 9 C-1.32 7.68 -2.64 6.36 -4 5 C-3 2 -3 2 0 0 Z " fill="#445369" transform="translate(78,135)"/>
<path d="M0 0 C3.0916909 2.52956528 3.90931332 5.22454612 5 9 C4.01 9.33 3.02 9.66 2 10 C2.33 8.68 2.66 7.36 3 6 C2.01 6 1.02 6 0 6 C0 4.02 0 2.04 0 0 Z " fill="#5B6774" transform="translate(132,77)"/>
<path d="M0 0 C0.66 0.33 1.32 0.66 2 1 C1.67 2.65 1.34 4.3 1 6 C-0.32 6.33 -1.64 6.66 -3 7 C-3.33 6.01 -3.66 5.02 -4 4 C-2.68 3.34 -1.36 2.68 0 2 C0 1.34 0 0.68 0 0 Z " fill="#041333" transform="translate(138,160)"/>
<path d="M0 0 C2.32472205 2.85306797 3.7508258 5.54074837 5 9 C3.35 8.67 1.7 8.34 0 8 C0 5.36 0 2.72 0 0 Z " fill="#757E8B" transform="translate(172,149)"/>
<path d="M0 0 C2.50037734 2.17424117 3.43628586 3.73045798 4 7 C2.68 7 1.36 7 0 7 C0 4.69 0 2.38 0 0 Z " fill="#5C6475" transform="translate(156,121)"/>
<path d="M0 0 C2.97 0.495 2.97 0.495 6 1 C5.67 2.32 5.34 3.64 5 5 C2.525 4.01 2.525 4.01 0 3 C0 2.01 0 1.02 0 0 Z " fill="#4A5464" transform="translate(207,73)"/>
<path d="M0 0 C0.99 0.33 1.98 0.66 3 1 C3.33 2.98 3.66 4.96 4 7 C3.01 7.495 3.01 7.495 2 8 C1.87625 7.195625 1.7525 6.39125 1.625 5.5625 C1.315625 4.2940625 1.315625 4.2940625 1 3 C0.34 2.67 -0.32 2.34 -1 2 C-0.67 1.34 -0.34 0.68 0 0 Z " fill="#111A30" transform="translate(185,177)"/>
<path d="M0 0 C2.475 0.99 2.475 0.99 5 2 C3.74458443 4.51083114 2.49936512 4.87125446 0 6 C-1.125 2.25 -1.125 2.25 0 0 Z " fill="#071632" transform="translate(143,106)"/>
<path d="M0 0 C2.15377564 2.62198774 3.40072174 4.64404172 4 8 C2.35 7.67 0.7 7.34 -1 7 C-0.67 4.69 -0.34 2.38 0 0 Z " fill="#606A78" transform="translate(255,64)"/>
<path d="M0 0 C2 1 2 1 3.125 4.0625 C3.41375 5.031875 3.7025 6.00125 4 7 C3.01 7 2.02 7 1 7 C0.67 6.34 0.34 5.68 0 5 C-0.99 4.67 -1.98 4.34 -3 4 C-2.01 4 -1.02 4 0 4 C0 2.68 0 1.36 0 0 Z " fill="#5D677A" transform="translate(112,40)"/>
<path d="M0 0 C2.50037734 2.17424117 3.43628586 3.73045798 4 7 C2.68 6.67 1.36 6.34 0 6 C0 4.02 0 2.04 0 0 Z " fill="#5D6979" transform="translate(193,188)"/>
<path d="M0 0 C2.50037734 2.17424117 3.43628586 3.73045798 4 7 C2.68 6.67 1.36 6.34 0 6 C0 4.02 0 2.04 0 0 Z " fill="#626C7C" transform="translate(181,166)"/>
<path d="M0 0 C1 3 1 3 0.0625 5.1875 C-0.4634375 6.0846875 -0.4634375 6.0846875 -1 7 C-1.66 7 -2.32 7 -3 7 C-3.1875 4.625 -3.1875 4.625 -3 2 C-2.01 1.34 -1.02 0.68 0 0 Z " fill="#0B1222" transform="translate(88,155)"/>
<path d="M0 0 C0.99 0.33 1.98 0.66 3 1 C2.67 2.98 2.34 4.96 2 7 C1.01 7 0.02 7 -1 7 C-0.67 4.69 -0.34 2.38 0 0 Z " fill="#1C2635" transform="translate(101,127)"/>
<path d="M0 0 C0.99 0.33 1.98 0.66 3 1 C3 1.99 3 2.98 3 4 C0.5 6.1875 0.5 6.1875 -2 8 C-1.125 2.25 -1.125 2.25 0 0 Z " fill="#061530" transform="translate(106,44)"/>
<path d="M0 0 C0.33 0 0.66 0 1 0 C1 1.98 1 3.96 1 6 C1.66 6 2.32 6 3 6 C2.67 7.98 2.34 9.96 2 12 C-0.13586678 8.79619983 -0.23132175 7.98060033 -0.125 4.3125 C-0.10695312 3.50425781 -0.08890625 2.69601563 -0.0703125 1.86328125 C-0.04710937 1.24839844 -0.02390625 0.63351563 0 0 Z " fill="#7D8394" transform="translate(142,37)"/>
</svg>
