<?xml version="1.0" encoding="UTF-8"?>
<!DOCTYPE svg PUBLIC "-//W3C//DTD SVG 1.1//EN" "http://www.w3.org/Graphics/SVG/1.1/DTD/svg11.dtd">
<svg xmlns="http://www.w3.org/2000/svg" version="1.1" width="612px" height="408px" style="shape-rendering:geometricPrecision; text-rendering:geometricPrecision; image-rendering:optimizeQuality; fill-rule:evenodd; clip-rule:evenodd" xmlns:xlink="http://www.w3.org/1999/xlink">
<g><path style="opacity:1" fill="#7b7b7b" d="M 375.5,107.5 C 377.178,110.552 377.845,113.885 377.5,117.5C 376.5,117.5 375.5,117.5 374.5,117.5C 371.246,117.207 368.246,117.874 365.5,119.5C 364.391,119.557 363.391,119.89 362.5,120.5C 362.5,119.5 362.5,118.5 362.5,117.5C 363.978,117.762 365.311,117.429 366.5,116.5C 365.833,116.167 365.167,115.833 364.5,115.5C 367.379,111.256 366.712,110.589 362.5,113.5C 361.833,114.833 361.167,116.167 360.5,117.5C 360.446,116.313 360.113,114.98 359.5,113.5C 357.677,114.491 356.177,115.824 355,117.5C 352.282,116.987 349.449,116.987 346.5,117.5C 354.171,114.496 361.505,110.663 368.5,106C 370.5,105.333 372.5,105.333 374.5,106C 375.056,106.383 375.389,106.883 375.5,107.5 Z"/></g>
<g><path style="opacity:1" fill="#636363" d="M 375.5,107.5 C 379.5,109.5 383.5,111.5 387.5,113.5C 387.5,114.5 387.5,115.5 387.5,116.5C 392.747,117.385 397.414,119.551 401.5,123C 399.519,123.605 399.185,124.605 400.5,126C 396.812,126.45 393.146,126.283 389.5,125.5C 389.167,125.5 388.833,125.5 388.5,125.5C 388.719,124.325 388.386,123.325 387.5,122.5C 383.414,121.36 379.414,120.027 375.5,118.5C 374.833,118.5 374.5,118.167 374.5,117.5C 375.5,117.5 376.5,117.5 377.5,117.5C 377.845,113.885 377.178,110.552 375.5,107.5 Z"/></g>
<g><path style="opacity:1" fill="#878787" d="M 362.5,120.5 C 358.775,119.93 355.608,121.264 353,124.5C 351.237,124.975 349.57,125.642 348,126.5C 347.667,126.167 347.333,125.833 347,125.5C 345.968,127.027 344.801,128.36 343.5,129.5C 342.833,129.5 342.167,129.5 341.5,129.5C 337.76,129.241 334.094,129.574 330.5,130.5C 328.276,129.919 327.443,128.586 328,126.5C 329.388,127.554 330.888,127.72 332.5,127C 331.378,125.387 331.878,124.22 334,123.5C 335.945,124.692 337.945,124.692 340,123.5C 341.966,121.956 344.132,120.79 346.5,120C 347.598,119.23 347.598,118.397 346.5,117.5C 349.449,116.987 352.282,116.987 355,117.5C 356.177,115.824 357.677,114.491 359.5,113.5C 360.113,114.98 360.446,116.313 360.5,117.5C 361.167,116.167 361.833,114.833 362.5,113.5C 366.712,110.589 367.379,111.256 364.5,115.5C 365.167,115.833 365.833,116.167 366.5,116.5C 365.311,117.429 363.978,117.762 362.5,117.5C 362.5,118.5 362.5,119.5 362.5,120.5 Z"/></g>
<g><path style="opacity:1" fill="#121212" d="M 365.5,119.5 C 365.027,120.906 364.027,121.573 362.5,121.5C 362.5,121.167 362.5,120.833 362.5,120.5C 363.391,119.89 364.391,119.557 365.5,119.5 Z"/></g>
<g><path style="opacity:1" fill="#414141" d="M 375.5,118.5 C 379.414,120.027 383.414,121.36 387.5,122.5C 388.386,123.325 388.719,124.325 388.5,125.5C 384.011,123.423 379.677,121.089 375.5,118.5 Z"/></g>
<g><path style="opacity:1" fill="#6c6c6c" d="M 346.5,117.5 C 347.598,118.397 347.598,119.23 346.5,120C 344.132,120.79 341.966,121.956 340,123.5C 337.945,124.692 335.945,124.692 334,123.5C 331.878,124.22 331.378,125.387 332.5,127C 330.888,127.72 329.388,127.554 328,126.5C 327.443,128.586 328.276,129.919 330.5,130.5C 334.094,129.574 337.76,129.241 341.5,129.5C 333.681,133.09 325.348,135.09 316.5,135.5C 314.925,137.114 314.259,139.114 314.5,141.5C 310.922,140.708 307.588,139.375 304.5,137.5C 304.027,136.094 303.027,135.427 301.5,135.5C 300.957,135.44 300.624,135.107 300.5,134.5C 301.689,133.571 303.022,133.238 304.5,133.5C 304.083,130.921 304.75,128.754 306.5,127C 320.39,126.027 333.724,122.86 346.5,117.5 Z"/></g>
<g><path style="opacity:1" fill="#595759" d="M 362.5,120.5 C 362.5,120.833 362.5,121.167 362.5,121.5C 356.356,124.619 350.023,127.286 343.5,129.5C 344.801,128.36 345.968,127.027 347,125.5C 347.333,125.833 347.667,126.167 348,126.5C 349.57,125.642 351.237,124.975 353,124.5C 355.608,121.264 358.775,119.93 362.5,120.5 Z"/></g>
<g><path style="opacity:1" fill="#4f4f4f" d="M 387.5,113.5 C 391.906,115.516 396.239,117.516 400.5,119.5C 403.748,122.817 407.748,124.817 412.5,125.5C 412.36,127.124 413.027,128.29 414.5,129C 411.456,129.359 411.122,130.026 413.5,131C 410.174,131.172 406.841,131.005 403.5,130.5C 398.291,129.989 393.624,128.322 389.5,125.5C 393.146,126.283 396.812,126.45 400.5,126C 399.185,124.605 399.519,123.605 401.5,123C 397.414,119.551 392.747,117.385 387.5,116.5C 387.5,115.5 387.5,114.5 387.5,113.5 Z"/></g>
<g><path style="opacity:1" fill="#414141" d="M 400.5,119.5 C 405.921,120.196 410.921,121.863 415.5,124.5C 422.028,127.605 429.028,128.938 436.5,128.5C 436.5,130.167 436.5,131.833 436.5,133.5C 434.4,135.155 432.734,137.322 431.5,140C 433.123,141.876 432.79,143.21 430.5,144C 430.956,147.797 430.456,151.631 429,155.5C 428.821,152.853 428.988,150.186 429.5,147.5C 429.468,143.007 428.468,139.007 426.5,135.5C 420.446,135.123 414.446,134.29 408.5,133C 406.509,132.626 404.842,131.793 403.5,130.5C 406.841,131.005 410.174,131.172 413.5,131C 411.122,130.026 411.456,129.359 414.5,129C 413.027,128.29 412.36,127.124 412.5,125.5C 407.748,124.817 403.748,122.817 400.5,119.5 Z"/></g>
<g><path style="opacity:1" fill="#838383" d="M 316.5,135.5 C 315.167,135.5 313.833,135.5 312.5,135.5C 312.5,136.5 312.5,137.5 312.5,138.5C 307.541,137.062 305.874,133.895 307.5,129C 312.583,128.574 317.583,127.74 322.5,126.5C 323.386,127.325 323.719,128.325 323.5,129.5C 318.855,128.669 317.855,129.836 320.5,133C 318.68,133.2 317.347,134.034 316.5,135.5 Z"/></g>
<g><path style="opacity:1" fill="#545253" d="M 379.5,128.5 C 373.86,131.138 374.193,132.471 380.5,132.5C 380.5,131.167 380.5,129.833 380.5,128.5C 382.22,129.751 382.553,131.251 381.5,133C 379.19,133.497 376.857,133.663 374.5,133.5C 374.141,129.245 375.808,127.578 379.5,128.5 Z"/></g>
<g><path style="opacity:1" fill="#8d8b8c" d="M 379.5,128.5 C 379.833,128.5 380.167,128.5 380.5,128.5C 380.5,129.833 380.5,131.167 380.5,132.5C 374.193,132.471 373.86,131.138 379.5,128.5 Z"/></g>
<g><path style="opacity:1" fill="#121212" d="M 301.5,135.5 C 303.027,135.427 304.027,136.094 304.5,137.5C 302.973,137.573 301.973,136.906 301.5,135.5 Z"/></g>
<g><path style="opacity:1" fill="#242424" d="M 415.5,124.5 C 423.55,124.925 431.384,126.258 439,128.5C 438.195,151.077 434.195,173.077 427,194.5C 424.768,199.735 422.268,204.735 419.5,209.5C 420.726,205.213 421.893,200.88 423,196.5C 428.279,188.75 431.112,180.083 431.5,170.5C 432.044,167.316 433.044,164.316 434.5,161.5C 434.392,160.558 434.059,159.725 433.5,159C 434.394,155.586 435.061,152.086 435.5,148.5C 435.61,146.626 434.944,145.126 433.5,144C 434.235,140.43 435.235,136.93 436.5,133.5C 436.5,131.833 436.5,130.167 436.5,128.5C 429.028,128.938 422.028,127.605 415.5,124.5 Z"/></g>
<g><path style="opacity:1" fill="#17392f" d="M 184.5,139.5 C 203.569,138.169 222.736,138.169 242,139.5C 242.667,140.5 242.667,141.5 242,142.5C 238.812,146.685 235.312,150.518 231.5,154C 218.227,155.425 204.894,155.925 191.5,155.5C 201.833,154.833 212.167,154.167 222.5,153.5C 226.415,153.753 230.081,153.087 233.5,151.5C 233.5,150.5 233.5,149.5 233.5,148.5C 234.467,147.194 235.801,146.527 237.5,146.5C 237.263,145.209 237.596,144.209 238.5,143.5C 239.434,142.432 239.768,141.099 239.5,139.5C 221.167,139.5 202.833,139.5 184.5,139.5 Z"/></g>
<g><path style="opacity:1" fill="#18372b" d="M 341.5,138.5 C 360.503,138.333 379.503,138.5 398.5,139C 399.451,139.718 399.617,140.551 399,141.5C 395.5,145.667 392,149.833 388.5,154C 387.207,154.49 385.873,154.657 384.5,154.5C 386.342,152.948 388.009,151.282 389.5,149.5C 390.404,148.791 390.737,147.791 390.5,146.5C 391.5,146.5 392.5,146.5 393.5,146.5C 393.5,145.5 393.5,144.5 393.5,143.5C 395.176,142.817 395.843,141.483 395.5,139.5C 377.326,139.83 359.326,139.497 341.5,138.5 Z"/></g>
<g><path style="opacity:1" fill="#265c48" d="M 300.5,141.5 C 300.833,142.167 301.167,142.833 301.5,143.5C 297.833,142.833 294.167,142.167 290.5,141.5C 277.37,140.25 264.37,140.25 251.5,141.5C 247.066,143.033 245.066,145.866 245.5,150C 244.906,150.464 244.239,150.631 243.5,150.5C 241.183,149.466 240.183,150.466 240.5,153.5C 255.522,153.785 270.522,153.452 285.5,152.5C 288.36,152.555 290.693,153.555 292.5,155.5C 291.167,155.5 289.833,155.5 288.5,155.5C 272.342,154.504 256.009,154.17 239.5,154.5C 239.5,153.167 239.5,151.833 239.5,150.5C 241.682,144.819 245.682,140.986 251.5,139C 264.833,138.333 278.167,138.333 291.5,139C 294.678,139.66 297.678,140.493 300.5,141.5 Z"/></g>
<g><path style="opacity:1" fill="#257c5c" d="M 393.5,143.5 C 393.5,144.5 393.5,145.5 393.5,146.5C 392.5,146.5 391.5,146.5 390.5,146.5C 390.737,147.791 390.404,148.791 389.5,149.5C 388.833,149.5 388.167,149.5 387.5,149.5C 389.628,148.719 389.795,147.719 388,146.5C 387.311,147.357 386.478,148.023 385.5,148.5C 380.327,146.705 374.994,145.205 369.5,144C 369.833,143.667 370.167,143.333 370.5,143C 361.546,141.736 352.546,141.236 343.5,141.5C 343.222,143.346 343.889,144.68 345.5,145.5C 348.948,143.135 352.448,143.135 356,145.5C 359.961,145.298 363.794,145.298 367.5,145.5C 365.077,146.729 362.577,147.729 360,148.5C 354.879,147.298 349.712,147.298 344.5,148.5C 343.844,149.278 343.011,149.944 342,150.5C 339.717,148.427 337.051,147.093 334,146.5C 334.996,151.341 333.496,152.341 329.5,149.5C 329.238,148.022 329.571,146.689 330.5,145.5C 333.719,143.706 337.052,142.206 340.5,141C 358.509,140.167 376.509,140.334 394.5,141.5C 394.137,142.183 393.804,142.85 393.5,143.5 Z"/></g>
<g><path style="opacity:1" fill="#464646" d="M 414.5,143.5 C 412.236,142.781 409.903,142.448 407.5,142.5C 410.299,139.599 412.632,139.933 414.5,143.5 Z"/></g>
<g><path style="opacity:1" fill="#247e5c" d="M 238.5,143.5 C 237.596,144.209 237.263,145.209 237.5,146.5C 235.801,146.527 234.467,147.194 233.5,148.5C 232.603,147.402 231.77,147.402 231,148.5C 229.73,146.164 228.23,146.164 226.5,148.5C 227.025,149.192 227.692,149.692 228.5,150C 225.734,150.338 223.067,149.838 220.5,148.5C 216.569,149.298 212.569,150.298 208.5,151.5C 202.295,152.052 196.128,151.385 190,149.5C 187.312,150.677 184.646,150.677 182,149.5C 180.419,151.847 179.086,151.847 178,149.5C 177,150.833 176,152.167 175,153.5C 174.529,146.626 177.696,142.46 184.5,141C 202.167,140.333 219.833,140.333 237.5,141C 238.252,141.671 238.586,142.504 238.5,143.5 Z"/></g>
<g><path style="opacity:1" fill="#227d59" d="M 290.5,141.5 C 294.167,142.167 297.833,142.833 301.5,143.5C 303.95,145.229 306.617,146.729 309.5,148C 310.252,148.671 310.586,149.504 310.5,150.5C 308.814,153.005 306.481,153.838 303.5,153C 304.5,152.667 305.5,152.333 306.5,152C 304.5,151.333 302.5,151.333 300.5,152C 301.731,153.183 301.731,154.349 300.5,155.5C 299.614,154.675 299.281,153.675 299.5,152.5C 294.514,152.17 289.847,150.836 285.5,148.5C 285.935,149.962 285.102,150.962 283,151.5C 281.3,149.685 279.134,148.685 276.5,148.5C 275.167,148.667 273.833,148.833 272.5,149C 274.9,149.186 277.234,149.686 279.5,150.5C 278.667,150.833 277.833,151.167 277,151.5C 273.225,150.869 269.392,150.869 265.5,151.5C 266.607,149.031 268.607,148.031 271.5,148.5C 271.5,147.5 271.5,146.5 271.5,145.5C 267.818,145.665 264.152,145.499 260.5,145C 263.029,143.938 265.696,143.105 268.5,142.5C 275.803,141.503 283.137,141.169 290.5,141.5 Z"/></g>
<g><path style="opacity:1" fill="#237e58" d="M 387.5,149.5 C 381.282,148.306 375.115,148.639 369,150.5C 367.715,150.05 366.548,149.383 365.5,148.5C 363.979,149.937 362.145,150.604 360,150.5C 357.581,150.463 355.915,149.796 355,148.5C 352.046,148.594 351.879,149.094 354.5,150C 350.999,150.096 347.666,149.596 344.5,148.5C 349.712,147.298 354.879,147.298 360,148.5C 362.577,147.729 365.077,146.729 367.5,145.5C 363.794,145.298 359.961,145.298 356,145.5C 352.448,143.135 348.948,143.135 345.5,145.5C 343.889,144.68 343.222,143.346 343.5,141.5C 352.546,141.236 361.546,141.736 370.5,143C 370.167,143.333 369.833,143.667 369.5,144C 374.994,145.205 380.327,146.705 385.5,148.5C 386.478,148.023 387.311,147.357 388,146.5C 389.795,147.719 389.628,148.719 387.5,149.5 Z"/></g>
<g><path style="opacity:1" fill="#7c7e7d" d="M 407.5,142.5 C 409.903,142.448 412.236,142.781 414.5,143.5C 415.833,144.833 415.833,146.167 414.5,147.5C 413.778,148.551 412.778,149.218 411.5,149.5C 411.167,149.5 410.833,149.5 410.5,149.5C 407.619,148.678 406.619,147.011 407.5,144.5C 407.5,143.833 407.5,143.167 407.5,142.5 Z"/></g>
<g><path style="opacity:1" fill="#237e5d" d="M 290.5,141.5 C 283.137,141.169 275.803,141.503 268.5,142.5C 265.696,143.105 263.029,143.938 260.5,145C 264.152,145.499 267.818,145.665 271.5,145.5C 271.5,146.5 271.5,147.5 271.5,148.5C 268.607,148.031 266.607,149.031 265.5,151.5C 257.837,152.154 250.17,152.321 242.5,152C 243.056,151.617 243.389,151.117 243.5,150.5C 244.239,150.631 244.906,150.464 245.5,150C 245.066,145.866 247.066,143.033 251.5,141.5C 264.37,140.25 277.37,140.25 290.5,141.5 Z"/></g>
<g><path style="opacity:1" fill="#207053" d="M 184.5,139.5 C 202.833,139.5 221.167,139.5 239.5,139.5C 239.768,141.099 239.434,142.432 238.5,143.5C 238.586,142.504 238.252,141.671 237.5,141C 219.833,140.333 202.167,140.333 184.5,141C 177.696,142.46 174.529,146.626 175,153.5C 176,152.167 177,150.833 178,149.5C 179.086,151.847 180.419,151.847 182,149.5C 184.646,150.677 187.312,150.677 190,149.5C 196.128,151.385 202.295,152.052 208.5,151.5C 212.569,150.298 216.569,149.298 220.5,148.5C 223.067,149.838 225.734,150.338 228.5,150C 227.692,149.692 227.025,149.192 226.5,148.5C 228.23,146.164 229.73,146.164 231,148.5C 231.77,147.402 232.603,147.402 233.5,148.5C 233.5,149.5 233.5,150.5 233.5,151.5C 230.081,153.087 226.415,153.753 222.5,153.5C 210.829,153.333 199.162,153.5 187.5,154C 186.324,155.674 184.99,157.174 183.5,158.5C 184.96,161.951 184.627,162.617 182.5,160.5C 178.888,161.608 175.388,162.942 172,164.5C 170.412,160.691 170.078,156.691 171,152.5C 172.527,149.447 174.027,146.447 175.5,143.5C 177.934,141.126 180.934,139.792 184.5,139.5 Z"/></g>
<g><path style="opacity:1" fill="#207556" d="M 344.5,148.5 C 347.666,149.596 350.999,150.096 354.5,150C 351.879,149.094 352.046,148.594 355,148.5C 355.915,149.796 357.581,150.463 360,150.5C 362.145,150.604 363.979,149.937 365.5,148.5C 366.548,149.383 367.715,150.05 369,150.5C 375.115,148.639 381.282,148.306 387.5,149.5C 384.118,151.066 380.451,152.066 376.5,152.5C 365.968,152.735 355.468,152.401 345,151.5C 344.646,153.807 343.646,154.141 342,152.5C 341.055,152.905 340.388,153.572 340,154.5C 336.532,153.197 333.032,153.197 329.5,154.5C 328.212,152.701 328.212,151.035 329.5,149.5C 333.496,152.341 334.996,151.341 334,146.5C 337.051,147.093 339.717,148.427 342,150.5C 343.011,149.944 343.844,149.278 344.5,148.5 Z"/></g>
<g><path style="opacity:1" fill="#383737" d="M 414.5,147.5 C 415.632,151.76 417.299,155.76 419.5,159.5C 418.206,158.71 417.039,157.71 416,156.5C 415.768,157.737 415.268,158.737 414.5,159.5C 414.292,155.879 413.292,152.546 411.5,149.5C 412.778,149.218 413.778,148.551 414.5,147.5 Z"/></g>
<g><path style="opacity:1" fill="#1e6e50" d="M 310.5,150.5 C 312.5,151.167 313.833,152.5 314.5,154.5C 314.064,156.746 313.397,158.913 312.5,161C 313.328,161.915 314.328,162.581 315.5,163C 314.833,163.333 314.167,163.667 313.5,164C 314.833,164.333 316.167,164.667 317.5,165C 315.63,166.366 313.63,167.533 311.5,168.5C 309.744,168.64 308.078,168.14 306.5,167C 307.696,165.166 308.529,163.333 309,161.5C 308.586,161.957 308.086,162.291 307.5,162.5C 305.023,158.478 303.689,158.478 303.5,162.5C 302.712,161.23 301.712,160.23 300.5,159.5C 298.161,157.459 295.495,156.126 292.5,155.5C 290.693,153.555 288.36,152.555 285.5,152.5C 270.522,153.452 255.522,153.785 240.5,153.5C 240.183,150.466 241.183,149.466 243.5,150.5C 243.389,151.117 243.056,151.617 242.5,152C 250.17,152.321 257.837,152.154 265.5,151.5C 269.392,150.869 273.225,150.869 277,151.5C 277.833,151.167 278.667,150.833 279.5,150.5C 277.234,149.686 274.9,149.186 272.5,149C 273.833,148.833 275.167,148.667 276.5,148.5C 279.134,148.685 281.3,149.685 283,151.5C 285.102,150.962 285.935,149.962 285.5,148.5C 289.847,150.836 294.514,152.17 299.5,152.5C 299.281,153.675 299.614,154.675 300.5,155.5C 301.731,154.349 301.731,153.183 300.5,152C 302.5,151.333 304.5,151.333 306.5,152C 305.5,152.333 304.5,152.667 303.5,153C 306.481,153.838 308.814,153.005 310.5,150.5 Z"/></g>
<g><path style="opacity:1" fill="#454645" d="M 407.5,144.5 C 406.619,147.011 407.619,148.678 410.5,149.5C 408.315,153.377 406.315,157.377 404.5,161.5C 403.778,161.082 403.278,160.416 403,159.5C 401.708,160.791 400.542,160.791 399.5,159.5C 401.017,159.489 402.184,158.823 403,157.5C 403.848,154.302 405.348,151.469 407.5,149C 404.826,149.153 402.16,149.653 399.5,150.5C 399.33,149.178 399.663,148.011 400.5,147C 402.854,146.153 405.188,145.32 407.5,144.5 Z"/></g>
<g><path style="opacity:1" fill="#21664d" d="M 341.5,138.5 C 359.326,139.497 377.326,139.83 395.5,139.5C 395.843,141.483 395.176,142.817 393.5,143.5C 393.804,142.85 394.137,142.183 394.5,141.5C 376.509,140.334 358.509,140.167 340.5,141C 337.052,142.206 333.719,143.706 330.5,145.5C 329.571,146.689 329.238,148.022 329.5,149.5C 328.212,151.035 328.212,152.701 329.5,154.5C 333.032,153.197 336.532,153.197 340,154.5C 340.388,153.572 341.055,152.905 342,152.5C 343.646,154.141 344.646,153.807 345,151.5C 355.468,152.401 365.968,152.735 376.5,152.5C 380.451,152.066 384.118,151.066 387.5,149.5C 388.167,149.5 388.833,149.5 389.5,149.5C 388.009,151.282 386.342,152.948 384.5,154.5C 378.925,155.452 373.259,155.786 367.5,155.5C 359.677,154.344 351.677,154.177 343.5,155C 341.977,157.434 340.977,160.101 340.5,163C 341.056,163.383 341.389,163.883 341.5,164.5C 340.732,165.263 340.232,166.263 340,167.5C 338.611,163.728 337.611,163.728 337,167.5C 336.683,165.699 336.016,165.366 335,166.5C 334.717,169.742 333.883,170.076 332.5,167.5C 331.483,170.028 330.316,170.028 329,167.5C 328.722,168.416 328.222,169.082 327.5,169.5C 327.158,168.662 326.492,168.328 325.5,168.5C 325.5,167.5 325.5,166.5 325.5,165.5C 325.009,158.84 326.009,152.507 328.5,146.5C 331.377,141.668 335.71,139.002 341.5,138.5 Z"/></g>
<g><path style="opacity:1" fill="#042f1f" d="M 239.5,150.5 C 239.5,151.833 239.5,153.167 239.5,154.5C 256.009,154.17 272.342,154.504 288.5,155.5C 271.83,155.667 255.163,155.5 238.5,155C 237.447,153.251 237.78,151.751 239.5,150.5 Z"/></g>
<g><path style="opacity:1" fill="#1a3f31" d="M 288.5,155.5 C 289.833,155.5 291.167,155.5 292.5,155.5C 295.495,156.126 298.161,157.459 300.5,159.5C 301.227,161.954 302.227,164.287 303.5,166.5C 304.112,169.696 304.112,172.696 303.5,175.5C 303.014,165.359 298.014,158.692 288.5,155.5 Z"/></g>
<g><path style="opacity:1" fill="#1f4838" d="M 328.5,146.5 C 326.009,152.507 325.009,158.84 325.5,165.5C 324.833,163.5 324.167,161.5 323.5,159.5C 323.547,156.432 324.047,153.432 325,150.5C 325.66,148.676 326.827,147.343 328.5,146.5 Z"/></g>
<g><path style="opacity:1" fill="#434543" d="M 399.5,159.5 C 397.821,159.285 396.821,159.952 396.5,161.5C 394.895,159.692 394.561,157.692 395.5,155.5C 397.188,156.521 398.521,157.855 399.5,159.5 Z"/></g>
<g><path style="opacity:1" fill="#373737" d="M 436.5,133.5 C 435.235,136.93 434.235,140.43 433.5,144C 434.944,145.126 435.61,146.626 435.5,148.5C 435.061,152.086 434.394,155.586 433.5,159C 434.059,159.725 434.392,160.558 434.5,161.5C 433.044,164.316 432.044,167.316 431.5,170.5C 429.982,173.448 428.315,176.448 426.5,179.5C 426.833,180.167 427.167,180.833 427.5,181.5C 426.273,182.59 425.44,183.924 425,185.5C 424.667,184.833 424.333,184.167 424,183.5C 423.667,184.833 423.333,186.167 423,187.5C 422.333,186.167 421.667,186.167 421,187.5C 419.961,186.756 419.461,185.756 419.5,184.5C 421.528,175.485 423.694,166.485 426,157.5C 426.972,150.095 427.139,142.762 426.5,135.5C 428.468,139.007 429.468,143.007 429.5,147.5C 428.988,150.186 428.821,152.853 429,155.5C 430.456,151.631 430.956,147.797 430.5,144C 432.79,143.21 433.123,141.876 431.5,140C 432.734,137.322 434.4,135.155 436.5,133.5 Z"/></g>
<g><path style="opacity:1" fill="#787978" d="M 419.5,159.5 C 419.739,161.467 419.406,163.301 418.5,165C 414.226,164.709 409.893,164.543 405.5,164.5C 403.992,167.25 401.659,168.084 398.5,167C 398.398,165.208 397.732,163.375 396.5,161.5C 396.821,159.952 397.821,159.285 399.5,159.5C 400.542,160.791 401.708,160.791 403,159.5C 403.278,160.416 403.778,161.082 404.5,161.5C 407.518,161.665 410.518,161.498 413.5,161C 414.056,160.617 414.389,160.117 414.5,159.5C 415.268,158.737 415.768,157.737 416,156.5C 417.039,157.71 418.206,158.71 419.5,159.5 Z"/></g>
<g><path style="opacity:1" fill="#1b6046" d="M 314.5,154.5 C 316.147,157.795 317.814,161.128 319.5,164.5C 320.422,168.482 318.922,170.816 315,171.5C 311.852,170.687 308.852,170.687 306,171.5C 305.626,169.509 304.793,167.842 303.5,166.5C 302.227,164.287 301.227,161.954 300.5,159.5C 301.712,160.23 302.712,161.23 303.5,162.5C 303.689,158.478 305.023,158.478 307.5,162.5C 308.086,162.291 308.586,161.957 309,161.5C 308.529,163.333 307.696,165.166 306.5,167C 308.078,168.14 309.744,168.64 311.5,168.5C 313.63,167.533 315.63,166.366 317.5,165C 316.167,164.667 314.833,164.333 313.5,164C 314.167,163.667 314.833,163.333 315.5,163C 314.328,162.581 313.328,161.915 312.5,161C 313.397,158.913 314.064,156.746 314.5,154.5 Z"/></g>
<g><path style="opacity:1" fill="#193d31" d="M 367.5,155.5 C 359.791,155.269 352.124,155.602 344.5,156.5C 342.772,160.153 343.438,163.32 346.5,166C 356.434,167.395 366.434,167.895 376.5,167.5C 378.599,168.612 380.933,169.279 383.5,169.5C 383.5,170.167 383.5,170.833 383.5,171.5C 380.938,171.679 378.272,171.345 375.5,170.5C 365.362,169.066 355.029,168.066 344.5,167.5C 343.624,166.749 342.624,166.249 341.5,166C 342.738,165.31 342.738,164.81 341.5,164.5C 341.389,163.883 341.056,163.383 340.5,163C 340.977,160.101 341.977,157.434 343.5,155C 351.677,154.177 359.677,154.344 367.5,155.5 Z"/></g>
<g><path style="opacity:1" fill="#070a0a" d="M 376.5,167.5 C 379.228,167.171 381.562,167.837 383.5,169.5C 380.933,169.279 378.599,168.612 376.5,167.5 Z"/></g>
<g><path style="opacity:1" fill="#1b5741" d="M 175.5,143.5 C 174.027,146.447 172.527,149.447 171,152.5C 170.078,156.691 170.412,160.691 172,164.5C 175.388,162.942 178.888,161.608 182.5,160.5C 184.627,162.617 184.96,161.951 183.5,158.5C 184.99,157.174 186.324,155.674 187.5,154C 199.162,153.5 210.829,153.333 222.5,153.5C 212.167,154.167 201.833,154.833 191.5,155.5C 189.61,155.297 188.11,155.963 187,157.5C 186.575,161.869 186.908,166.203 188,170.5C 189.905,171.158 191.405,172.325 192.5,174C 196.219,174.388 199.886,175.055 203.5,176C 199.5,176.667 195.5,176.667 191.5,176C 189.673,174.346 187.84,173.512 186,173.5C 185.043,176.698 183.209,177.698 180.5,176.5C 179.85,176.804 179.183,177.137 178.5,177.5C 176.338,175.98 174.005,174.98 171.5,174.5C 166.004,165.096 166.171,155.763 172,146.5C 173.039,145.29 174.206,144.29 175.5,143.5 Z"/></g>
<g><path style="opacity:1" fill="#164f3a" d="M 191.5,155.5 C 187.948,158.556 187.615,162.056 190.5,166C 200.754,167.426 211.088,167.926 221.5,167.5C 226.119,170.166 230.785,172.833 235.5,175.5C 235.025,178.082 235.692,180.082 237.5,181.5C 236.791,182.404 235.791,182.737 234.5,182.5C 234.719,183.675 234.386,184.675 233.5,185.5C 232.575,184.359 231.741,184.359 231,185.5C 229.812,184.437 229.312,183.103 229.5,181.5C 226.606,181.042 224.106,181.709 222,183.5C 221.329,182.748 220.496,182.414 219.5,182.5C 209.777,181.493 199.777,181.326 189.5,182C 185.184,182.181 182.184,180.348 180.5,176.5C 183.209,177.698 185.043,176.698 186,173.5C 187.84,173.512 189.673,174.346 191.5,176C 195.5,176.667 199.5,176.667 203.5,176C 199.886,175.055 196.219,174.388 192.5,174C 191.405,172.325 189.905,171.158 188,170.5C 186.908,166.203 186.575,161.869 187,157.5C 188.11,155.963 189.61,155.297 191.5,155.5 Z"/></g>
<g><path style="opacity:1" fill="#175840" d="M 341.5,164.5 C 342.738,164.81 342.738,165.31 341.5,166C 342.624,166.249 343.624,166.749 344.5,167.5C 355.029,168.066 365.362,169.066 375.5,170.5C 375.414,171.496 375.748,172.329 376.5,173C 370.833,173.333 365.167,173.667 359.5,174C 356.435,176.527 353.101,177.027 349.5,175.5C 345.514,176.11 341.514,176.61 337.5,177C 337,177.5 336.5,178 336,178.5C 334.392,176.9 332.559,175.567 330.5,174.5C 329.74,172.64 328.74,170.973 327.5,169.5C 328.222,169.082 328.722,168.416 329,167.5C 330.316,170.028 331.483,170.028 332.5,167.5C 333.883,170.076 334.717,169.742 335,166.5C 336.016,165.366 336.683,165.699 337,167.5C 337.611,163.728 338.611,163.728 340,167.5C 340.232,166.263 340.732,165.263 341.5,164.5 Z"/></g>
<g><path style="opacity:1" fill="#152e27" d="M 221.5,167.5 C 225.781,168.136 229.781,169.636 233.5,172C 234.823,172.816 235.489,173.983 235.5,175.5C 230.785,172.833 226.119,170.166 221.5,167.5 Z"/></g>
<g><path style="opacity:1" fill="#1a5840" d="M 262.5,162.5 C 262.5,164.167 262.5,165.833 262.5,167.5C 261.636,168.688 260.636,169.855 259.5,171C 259.833,171.333 260.167,171.667 260.5,172C 259.91,173.509 259.244,175.009 258.5,176.5C 255.308,174.287 252.308,174.12 249.5,176C 251.441,176.743 253.274,176.576 255,175.5C 255.265,177.163 254.765,178.663 253.5,180C 251.121,180.614 248.788,180.947 246.5,181C 246.833,180.667 247.167,180.333 247.5,180C 246.771,177.942 245.771,176.109 244.5,174.5C 244.5,170.5 244.5,166.5 244.5,162.5C 250.5,162.5 256.5,162.5 262.5,162.5 Z"/></g>
<g><path style="opacity:1" fill="#13503a" d="M 319.5,164.5 C 321.37,171.205 320.537,177.539 317,183.5C 313.183,184.493 309.517,184.493 306,183.5C 305.155,181.389 304.322,179.389 303.5,177.5C 303.5,176.833 303.5,176.167 303.5,175.5C 304.112,172.696 304.112,169.696 303.5,166.5C 304.793,167.842 305.626,169.509 306,171.5C 308.852,170.687 311.852,170.687 315,171.5C 318.922,170.816 320.422,168.482 319.5,164.5 Z"/></g>
<g><path style="opacity:1" fill="#134e38" d="M 325.5,168.5 C 326.492,168.328 327.158,168.662 327.5,169.5C 328.74,170.973 329.74,172.64 330.5,174.5C 332.559,175.567 334.392,176.9 336,178.5C 336.5,178 337,177.5 337.5,177C 341.514,176.61 345.514,176.11 349.5,175.5C 353.101,177.027 356.435,176.527 359.5,174C 365.167,173.667 370.833,173.333 376.5,173C 375.748,172.329 375.414,171.496 375.5,170.5C 378.272,171.345 380.938,171.679 383.5,171.5C 385.103,171.312 386.437,171.812 387.5,173C 387.167,173.333 386.833,173.667 386.5,174C 388.349,175.093 390.016,176.426 391.5,178C 390.944,178.383 390.611,178.883 390.5,179.5C 389.141,180.007 388.141,181.007 387.5,182.5C 385.941,181.553 384.274,180.887 382.5,180.5C 373.909,180.806 365.243,181.139 356.5,181.5C 349.397,181.626 342.397,180.959 335.5,179.5C 330.113,177.744 326.78,174.077 325.5,168.5 Z"/></g>
<g><path style="opacity:1" fill="#4b4e4d" d="M 396.5,161.5 C 397.732,163.375 398.398,165.208 398.5,167C 401.659,168.084 403.992,167.25 405.5,164.5C 405.846,170.54 408.679,174.873 414,177.5C 414.789,179.712 414.622,181.712 413.5,183.5C 412.432,184.434 411.099,184.768 409.5,184.5C 407.954,190.014 407.121,195.681 407,201.5C 406.617,202.056 406.117,202.389 405.5,202.5C 405.5,200.5 405.5,198.5 405.5,196.5C 404.5,196.5 403.5,196.5 402.5,196.5C 404.257,192.402 405.923,188.235 407.5,184C 405.766,182.216 403.766,180.716 401.5,179.5C 403.5,178.833 405.5,178.167 407.5,177.5C 405.602,174.777 403.935,171.943 402.5,169C 399.741,168.023 397.741,168.856 396.5,171.5C 395.305,169.703 393.638,168.703 391.5,168.5C 391.22,165.612 392.553,164.112 395.5,164C 396.252,163.329 396.586,162.496 396.5,161.5 Z"/></g>
<g><path style="opacity:1" fill="#838383" d="M 413.5,183.5 C 409.092,183.938 407.425,181.938 408.5,177.5C 410.429,177.231 412.095,177.731 413.5,179C 413.034,180.299 413.034,181.799 413.5,183.5 Z"/></g>
<g><path style="opacity:1" fill="#114131" d="M 262.5,167.5 C 262.5,173.5 262.5,179.5 262.5,185.5C 261.681,188.305 261.181,191.305 261,194.5C 258.546,195.198 256.213,196.198 254,197.5C 253.275,195.842 252.108,195.342 250.5,196C 249.929,197.205 249.262,198.372 248.5,199.5C 247.914,199.291 247.414,198.957 247,198.5C 246.159,195.372 245.325,192.372 244.5,189.5C 244.5,184.5 244.5,179.5 244.5,174.5C 245.771,176.109 246.771,177.942 247.5,180C 247.167,180.333 246.833,180.667 246.5,181C 248.788,180.947 251.121,180.614 253.5,180C 254.765,178.663 255.265,177.163 255,175.5C 253.274,176.576 251.441,176.743 249.5,176C 252.308,174.12 255.308,174.287 258.5,176.5C 259.244,175.009 259.91,173.509 260.5,172C 260.167,171.667 259.833,171.333 259.5,171C 260.636,169.855 261.636,168.688 262.5,167.5 Z"/></g>
<g><path style="opacity:1" fill="#0f412f" d="M 335.5,179.5 C 342.397,180.959 349.397,181.626 356.5,181.5C 365.243,181.139 373.909,180.806 382.5,180.5C 384.274,180.887 385.941,181.553 387.5,182.5C 388.141,181.007 389.141,180.007 390.5,179.5C 391.309,180.469 392.309,181.302 393.5,182C 392.452,183.756 392.452,185.59 393.5,187.5C 391.958,188.068 391.125,189.735 391,192.5C 389.769,191.892 388.436,191.559 387,191.5C 384.914,192.087 383.081,192.587 381.5,193C 380.366,191.984 380.699,191.317 382.5,191C 381.773,189.601 381.273,188.101 381,186.5C 380.329,187.252 379.496,187.586 378.5,187.5C 377.596,186.791 377.263,185.791 377.5,184.5C 375.692,184.509 374.025,184.009 372.5,183C 360.459,182.866 348.459,182.199 336.5,181C 335.944,180.617 335.611,180.117 335.5,179.5 Z"/></g>
<g><path style="opacity:1" fill="#123b2d" d="M 300.5,141.5 C 315.758,148.143 323.092,159.977 322.5,177C 322.409,180.217 322.075,183.384 321.5,186.5C 319.801,188.566 318.468,190.9 317.5,193.5C 315.906,193.92 314.406,194.586 313,195.5C 308.744,196.012 304.411,196.012 300,195.5C 299.626,194.584 299.126,193.75 298.5,193C 302.489,191.361 304.489,188.361 304.5,184C 303.594,182.301 303.261,180.467 303.5,178.5C 303.5,178.167 303.5,177.833 303.5,177.5C 304.322,179.389 305.155,181.389 306,183.5C 309.517,184.493 313.183,184.493 317,183.5C 320.537,177.539 321.37,171.205 319.5,164.5C 317.814,161.128 316.147,157.795 314.5,154.5C 313.833,152.5 312.5,151.167 310.5,150.5C 310.586,149.504 310.252,148.671 309.5,148C 306.617,146.729 303.95,145.229 301.5,143.5C 301.167,142.833 300.833,142.167 300.5,141.5 Z"/></g>
<g><path style="opacity:1" fill="#0f2f24" d="M 171.5,174.5 C 174.005,174.98 176.338,175.98 178.5,177.5C 179.183,177.137 179.85,176.804 180.5,176.5C 182.184,180.348 185.184,182.181 189.5,182C 199.777,181.326 209.777,181.493 219.5,182.5C 221.768,185.168 223.601,188.168 225,191.5C 225.991,190.061 227.324,189.061 229,188.5C 229.29,190.044 229.956,191.377 231,192.5C 233.54,191.457 235.874,190.791 238,190.5C 239.515,187.106 239.348,184.106 237.5,181.5C 235.692,180.082 235.025,178.082 235.5,175.5C 237.411,175.574 238.578,176.574 239,178.5C 239.9,182.171 240.734,185.837 241.5,189.5C 240.082,192.02 239.082,194.687 238.5,197.5C 235.918,196.954 233.751,197.954 232,200.5C 228.637,197.805 225.47,198.138 222.5,201.5C 221.817,201.137 221.15,200.804 220.5,200.5C 220.389,199.883 220.056,199.383 219.5,199C 220.687,197.981 221.687,196.814 222.5,195.5C 222.502,193.463 222.168,191.463 221.5,189.5C 220.375,187.871 219.041,186.371 217.5,185C 206.833,184.667 196.167,184.333 185.5,184C 179.55,182.539 174.883,179.373 171.5,174.5 Z"/></g>
<g><path style="opacity:1" fill="#0f3d2c" d="M 237.5,181.5 C 239.348,184.106 239.515,187.106 238,190.5C 235.874,190.791 233.54,191.457 231,192.5C 229.956,191.377 229.29,190.044 229,188.5C 227.324,189.061 225.991,190.061 225,191.5C 223.601,188.168 221.768,185.168 219.5,182.5C 220.496,182.414 221.329,182.748 222,183.5C 224.106,181.709 226.606,181.042 229.5,181.5C 229.312,183.103 229.812,184.437 231,185.5C 231.741,184.359 232.575,184.359 233.5,185.5C 234.386,184.675 234.719,183.675 234.5,182.5C 235.791,182.737 236.791,182.404 237.5,181.5 Z"/></g>
<g><path style="opacity:1" fill="#0f3226" d="M 383.5,169.5 C 390.185,171.352 394.351,175.686 396,182.5C 396.497,185.146 396.664,187.813 396.5,190.5C 395.512,191.795 394.512,193.128 393.5,194.5C 392.069,195.903 390.902,197.569 390,199.5C 389,198.833 388,198.167 387,197.5C 385.475,197.888 383.808,197.888 382,197.5C 380.512,199.16 378.679,200.16 376.5,200.5C 376.389,199.883 376.056,199.383 375.5,199C 376.87,197.559 377.87,195.892 378.5,194C 377.667,191.919 377.667,189.752 378.5,187.5C 379.496,187.586 380.329,187.252 381,186.5C 381.273,188.101 381.773,189.601 382.5,191C 380.699,191.317 380.366,191.984 381.5,193C 383.081,192.587 384.914,192.087 387,191.5C 388.436,191.559 389.769,191.892 391,192.5C 391.125,189.735 391.958,188.068 393.5,187.5C 392.452,185.59 392.452,183.756 393.5,182C 392.309,181.302 391.309,180.469 390.5,179.5C 390.611,178.883 390.944,178.383 391.5,178C 390.016,176.426 388.349,175.093 386.5,174C 386.833,173.667 387.167,173.333 387.5,173C 386.437,171.812 385.103,171.312 383.5,171.5C 383.5,170.833 383.5,170.167 383.5,169.5 Z"/></g>
<g><path style="opacity:1" fill="#2d2d2d" d="M 431.5,170.5 C 431.112,180.083 428.279,188.75 423,196.5C 421.893,200.88 420.726,205.213 419.5,209.5C 416.161,212.003 413.828,215.337 412.5,219.5C 411.086,220.624 409.586,221.624 408,222.5C 407.439,224.725 406.439,226.725 405,228.5C 403.848,226.351 402.348,224.518 400.5,223C 401.5,222.667 402.5,222.333 403.5,222C 402.748,221.329 402.414,220.496 402.5,219.5C 409.13,208.262 414.797,196.596 419.5,184.5C 419.461,185.756 419.961,186.756 421,187.5C 421.667,186.167 422.333,186.167 423,187.5C 423.333,186.167 423.667,184.833 424,183.5C 424.333,184.167 424.667,184.833 425,185.5C 425.44,183.924 426.273,182.59 427.5,181.5C 427.167,180.833 426.833,180.167 426.5,179.5C 428.315,176.448 429.982,173.448 431.5,170.5 Z"/></g>
<g><path style="opacity:1" fill="#102620" d="M 221.5,189.5 C 222.168,191.463 222.502,193.463 222.5,195.5C 221.687,196.814 220.687,197.981 219.5,199C 220.056,199.383 220.389,199.883 220.5,200.5C 217.751,200.726 215.084,200.393 212.5,199.5C 211.304,199.846 211.304,200.346 212.5,201C 206.86,202.626 201.527,201.793 196.5,198.5C 193.861,200.446 190.861,201.446 187.5,201.5C 183.209,200.995 179.209,200.329 175.5,199.5C 177.148,198.073 179.148,197.24 181.5,197C 193.5,196.667 205.5,196.333 217.5,196C 219.887,194.453 221.22,192.287 221.5,189.5 Z"/></g>
<g><path style="opacity:1" fill="#0d2c21" d="M 303.5,178.5 C 303.261,180.467 303.594,182.301 304.5,184C 304.489,188.361 302.489,191.361 298.5,193C 299.126,193.75 299.626,194.584 300,195.5C 304.411,196.012 308.744,196.012 313,195.5C 314.406,194.586 315.906,193.92 317.5,193.5C 315.177,197.655 312.011,200.989 308,203.5C 291.825,202.304 273.325,202.304 252.5,203.5C 250.736,205.278 248.736,206.611 246.5,207.5C 244.547,201.926 243.88,195.926 244.5,189.5C 245.325,192.372 246.159,195.372 247,198.5C 247.414,198.957 247.914,199.291 248.5,199.5C 249.262,198.372 249.929,197.205 250.5,196C 252.108,195.342 253.275,195.842 254,197.5C 256.213,196.198 258.546,195.198 261,194.5C 261.181,191.305 261.681,188.305 262.5,185.5C 262.185,189.371 262.518,193.038 263.5,196.5C 271.531,197.851 279.698,198.851 288,199.5C 288.605,197.519 289.605,197.185 291,198.5C 292.584,197.139 294.418,196.472 296.5,196.5C 296.629,194.784 296.962,193.117 297.5,191.5C 300.847,187.76 302.847,183.426 303.5,178.5 Z"/></g>
<g><path style="opacity:1" fill="#0e1d17" d="M 297.5,191.5 C 296.962,193.117 296.629,194.784 296.5,196.5C 294.418,196.472 292.584,197.139 291,198.5C 289.605,197.185 288.605,197.519 288,199.5C 279.698,198.851 271.531,197.851 263.5,196.5C 273.557,196.865 283.557,196.365 293.5,195C 294.705,193.624 296.038,192.458 297.5,191.5 Z"/></g>
<g><path style="opacity:1" fill="#102620" d="M 323.5,159.5 C 324.167,161.5 324.833,163.5 325.5,165.5C 325.5,166.5 325.5,167.5 325.5,168.5C 326.78,174.077 330.113,177.744 335.5,179.5C 335.611,180.117 335.944,180.617 336.5,181C 348.459,182.199 360.459,182.866 372.5,183C 374.025,184.009 375.692,184.509 377.5,184.5C 377.263,185.791 377.596,186.791 378.5,187.5C 377.667,189.752 377.667,191.919 378.5,194C 377.87,195.892 376.87,197.559 375.5,199C 376.056,199.383 376.389,199.883 376.5,200.5C 362.434,201.812 347.768,201.812 332.5,200.5C 332.611,199.883 332.944,199.383 333.5,199C 345.048,198.959 356.382,198.125 367.5,196.5C 370.206,196.425 372.873,196.092 375.5,195.5C 377.296,191.518 376.629,188.018 373.5,185C 362.833,184.667 352.167,184.333 341.5,184C 328.812,180.804 322.812,172.637 323.5,159.5 Z"/></g>
<g><path style="opacity:1" fill="#0b2a1f" d="M 393.5,194.5 C 394.239,194.369 394.906,194.536 395.5,195C 393.02,195.915 392.353,197.415 393.5,199.5C 391.761,203.047 389.594,203.713 387,201.5C 383.478,203.692 379.811,204.359 376,203.5C 373.733,204.289 371.4,204.956 369,205.5C 359.179,205.093 349.345,204.76 339.5,204.5C 333.81,204.961 333.476,205.795 338.5,207C 336.564,207.813 334.564,208.313 332.5,208.5C 331.615,206.064 331.615,203.398 332.5,200.5C 347.768,201.812 362.434,201.812 376.5,200.5C 378.679,200.16 380.512,199.16 382,197.5C 383.808,197.888 385.475,197.888 387,197.5C 388,198.167 389,198.833 390,199.5C 390.902,197.569 392.069,195.903 393.5,194.5 Z"/></g>
<g><path style="opacity:1" fill="#0c2b1f" d="M 238.5,197.5 C 237.811,198.707 237.645,200.041 238,201.5C 235.05,200.768 233.55,202.101 233.5,205.5C 230.728,202.89 227.894,202.89 225,205.5C 221.045,204.225 217.045,204.225 213,205.5C 211.441,204.971 209.941,204.304 208.5,203.5C 197.552,204.478 186.552,204.811 175.5,204.5C 175.5,202.833 175.5,201.167 175.5,199.5C 179.209,200.329 183.209,200.995 187.5,201.5C 190.861,201.446 193.861,200.446 196.5,198.5C 201.527,201.793 206.86,202.626 212.5,201C 211.304,200.346 211.304,199.846 212.5,199.5C 215.084,200.393 217.751,200.726 220.5,200.5C 221.15,200.804 221.817,201.137 222.5,201.5C 225.47,198.138 228.637,197.805 232,200.5C 233.751,197.954 235.918,196.954 238.5,197.5 Z"/></g>
<g><path style="opacity:1" fill="#0c231b" d="M 321.5,186.5 C 319.905,194.627 315.905,201.294 309.5,206.5C 308.85,206.196 308.183,205.863 307.5,205.5C 302.18,207.87 296.68,209.537 291,210.5C 284.667,210.167 278.333,209.833 272,209.5C 265.869,211.149 259.536,212.149 253,212.5C 250.674,210.934 248.508,209.268 246.5,207.5C 248.736,206.611 250.736,205.278 252.5,203.5C 273.325,202.304 291.825,202.304 308,203.5C 312.011,200.989 315.177,197.655 317.5,193.5C 318.468,190.9 319.801,188.566 321.5,186.5 Z"/></g>
<g><path style="opacity:1" fill="#0d231c" d="M 396.5,190.5 C 397.285,197.828 394.951,203.828 389.5,208.5C 385.522,207.924 381.855,209.09 378.5,212C 369.833,212.667 361.167,212.667 352.5,212C 353.696,211.346 353.696,210.846 352.5,210.5C 351.554,210.987 350.554,211.32 349.5,211.5C 345.706,211.148 342.873,210.148 341,208.5C 338.046,208.594 337.879,209.094 340.5,210C 337.422,209.934 334.422,210.101 331.5,210.5C 327.567,209.012 327.9,208.345 332.5,208.5C 334.564,208.313 336.564,207.813 338.5,207C 333.476,205.795 333.81,204.961 339.5,204.5C 349.345,204.76 359.179,205.093 369,205.5C 371.4,204.956 373.733,204.289 376,203.5C 379.811,204.359 383.478,203.692 387,201.5C 389.594,203.713 391.761,203.047 393.5,199.5C 392.353,197.415 393.02,195.915 395.5,195C 394.906,194.536 394.239,194.369 393.5,194.5C 394.512,193.128 395.512,191.795 396.5,190.5 Z"/></g>
<g><path style="opacity:1" fill="#0e1a16" d="M 241.5,189.5 C 241.797,203.363 235.131,211.197 221.5,213C 203.167,213.667 184.833,213.667 166.5,213C 165.549,212.282 165.383,211.449 166,210.5C 169.174,206.802 172.341,203.135 175.5,199.5C 175.5,201.167 175.5,202.833 175.5,204.5C 174.781,206.091 173.781,207.591 172.5,209C 173,209.5 173.5,210 174,210.5C 180.854,208.171 187.187,208.171 193,210.5C 197,210.5 201,210.5 205,210.5C 209.477,209.661 214.144,208.327 219,206.5C 219.833,206.667 220.667,206.833 221.5,207C 220.376,207.249 219.376,207.749 218.5,208.5C 219.522,209.354 220.355,210.354 221,211.5C 221.5,210.333 222.333,209.5 223.5,209C 227.346,208.987 230.679,207.82 233.5,205.5C 233.55,202.101 235.05,200.768 238,201.5C 237.645,200.041 237.811,198.707 238.5,197.5C 239.082,194.687 240.082,192.02 241.5,189.5 Z"/></g>
<g><path style="opacity:1" fill="#0c241b" d="M 233.5,205.5 C 230.679,207.82 227.346,208.987 223.5,209C 222.333,209.5 221.5,210.333 221,211.5C 220.355,210.354 219.522,209.354 218.5,208.5C 219.376,207.749 220.376,207.249 221.5,207C 220.667,206.833 219.833,206.667 219,206.5C 214.144,208.327 209.477,209.661 205,210.5C 201,210.5 197,210.5 193,210.5C 187.187,208.171 180.854,208.171 174,210.5C 173.5,210 173,209.5 172.5,209C 173.781,207.591 174.781,206.091 175.5,204.5C 186.552,204.811 197.552,204.478 208.5,203.5C 209.941,204.304 211.441,204.971 213,205.5C 217.045,204.225 221.045,204.225 225,205.5C 227.894,202.89 230.728,202.89 233.5,205.5 Z"/></g>
<g><path style="opacity:1" fill="#0e1915" d="M 367.5,196.5 C 356.382,198.125 345.048,198.959 333.5,199C 332.944,199.383 332.611,199.883 332.5,200.5C 331.615,203.398 331.615,206.064 332.5,208.5C 327.9,208.345 327.567,209.012 331.5,210.5C 334.422,210.101 337.422,209.934 340.5,210C 337.879,209.094 338.046,208.594 341,208.5C 342.873,210.148 345.706,211.148 349.5,211.5C 350.554,211.32 351.554,210.987 352.5,210.5C 353.696,210.846 353.696,211.346 352.5,212C 361.167,212.667 369.833,212.667 378.5,212C 381.855,209.09 385.522,207.924 389.5,208.5C 387.035,210.837 384.035,212.337 380.5,213C 362.121,214.268 343.787,214.768 325.5,214.5C 324.761,214.631 324.094,214.464 323.5,214C 325.58,212.039 325.914,209.872 324.5,207.5C 326.761,203.932 329.428,200.766 332.5,198C 344.104,196.588 355.771,196.088 367.5,196.5 Z"/></g>
<g><path style="opacity:1" fill="#0c1915" d="M 262.5,162.5 C 256.5,162.5 250.5,162.5 244.5,162.5C 244.5,166.5 244.5,170.5 244.5,174.5C 244.5,179.5 244.5,184.5 244.5,189.5C 243.88,195.926 244.547,201.926 246.5,207.5C 248.508,209.268 250.674,210.934 253,212.5C 259.536,212.149 265.869,211.149 272,209.5C 278.333,209.833 284.667,210.167 291,210.5C 296.68,209.537 302.18,207.87 307.5,205.5C 308.183,205.863 308.85,206.196 309.5,206.5C 303.642,210.665 296.975,212.832 289.5,213C 275.5,213.667 261.5,213.667 247.5,213C 246,212.167 244.833,211 244,209.5C 243.5,193.503 243.333,177.503 243.5,161.5C 250.022,161.177 256.355,161.51 262.5,162.5 Z"/></g>
<g><path style="opacity:1" fill="#19392d" d="M 402.5,196.5 C 403.5,196.5 404.5,196.5 405.5,196.5C 405.5,198.5 405.5,200.5 405.5,202.5C 403.872,207.09 401.705,211.423 399,215.5C 397.951,217.618 396.451,219.284 394.5,220.5C 394.449,218.43 395.115,216.597 396.5,215C 396.167,214.5 395.833,214 395.5,213.5C 391.756,215.808 387.756,217.641 383.5,219C 371.838,219.5 360.171,219.667 348.5,219.5C 360.729,218.94 373.063,218.106 385.5,217C 393.952,212.39 399.619,205.556 402.5,196.5 Z"/></g>
<g><path style="opacity:1" fill="#232423" d="M 324.5,207.5 C 325.914,209.872 325.58,212.039 323.5,214C 324.094,214.464 324.761,214.631 325.5,214.5C 325.5,215.833 325.5,217.167 325.5,218.5C 330.363,218.181 335.03,218.514 339.5,219.5C 332.8,219.17 326.134,219.503 319.5,220.5C 319.624,221.107 319.957,221.44 320.5,221.5C 316.862,221.558 313.196,221.558 309.5,221.5C 310.106,217.267 311.606,213.267 314,209.5C 315.011,208.663 316.178,208.33 317.5,208.5C 316.374,211.779 315.541,215.112 315,218.5C 317.868,217.764 320.534,217.764 323,218.5C 323.5,218.333 324,218.167 324.5,218C 320.533,214.376 320.533,210.876 324.5,207.5 Z"/></g>
<g><path style="opacity:1" fill="#246850" d="M 394.5,220.5 C 394.573,222.027 393.906,223.027 392.5,223.5C 387.112,224.221 384.112,227.221 383.5,232.5C 380.191,233.152 377.191,234.485 374.5,236.5C 379.066,232.243 383.066,227.41 386.5,222C 374.891,220.232 363.224,220.065 351.5,221.5C 352.137,223.303 353.303,224.636 355,225.5C 355.49,226.793 355.657,228.127 355.5,229.5C 352.152,226.778 349.818,223.444 348.5,219.5C 360.171,219.667 371.838,219.5 383.5,219C 387.756,217.641 391.756,215.808 395.5,213.5C 395.833,214 396.167,214.5 396.5,215C 395.115,216.597 394.449,218.43 394.5,220.5 Z"/></g>
<g><path style="opacity:1" fill="#090909" d="M 324.5,221.5 C 327.082,221.025 329.082,221.692 330.5,223.5C 328.374,222.952 326.374,222.285 324.5,221.5 Z"/></g>
<g><path style="opacity:1" fill="#218461" d="M 374.5,236.5 C 372.521,238.168 370.188,238.834 367.5,238.5C 365.77,237.974 364.436,236.974 363.5,235.5C 364.598,234.603 364.598,233.77 363.5,233C 360.936,231.604 358.269,230.437 355.5,229.5C 355.657,228.127 355.49,226.793 355,225.5C 353.303,224.636 352.137,223.303 351.5,221.5C 363.224,220.065 374.891,220.232 386.5,222C 383.066,227.41 379.066,232.243 374.5,236.5 Z"/></g>
<g><path style="opacity:1" fill="#232424" d="M 419.5,209.5 C 412.251,225.432 401.585,238.765 387.5,249.5C 387.421,248.07 387.754,246.736 388.5,245.5C 390.765,243.267 393.099,241.1 395.5,239C 396.448,238.517 397.448,238.351 398.5,238.5C 398.472,236.418 399.139,234.584 400.5,233C 399.667,232.167 398.833,231.333 398,230.5C 394.819,231.202 391.986,232.536 389.5,234.5C 393.607,229.273 397.94,224.273 402.5,219.5C 402.414,220.496 402.748,221.329 403.5,222C 402.5,222.333 401.5,222.667 400.5,223C 402.348,224.518 403.848,226.351 405,228.5C 406.439,226.725 407.439,224.725 408,222.5C 409.586,221.624 411.086,220.624 412.5,219.5C 413.828,215.337 416.161,212.003 419.5,209.5 Z"/></g>
<g><path style="opacity:1" fill="#1b4335" d="M 392.5,223.5 C 392.013,224.473 391.513,225.473 391,226.5C 388.938,229.063 386.438,231.063 383.5,232.5C 384.112,227.221 387.112,224.221 392.5,223.5 Z"/></g>
<g><path style="opacity:1" fill="#202020" d="M 249.5,235.5 C 249.414,234.504 249.748,233.671 250.5,233C 249.151,232.228 248.318,231.061 248,229.5C 245.862,229.148 243.696,229.648 241.5,231C 242.793,231.49 244.127,231.657 245.5,231.5C 244.684,234.107 243.017,236.107 240.5,237.5C 240.414,236.504 240.748,235.671 241.5,235C 238.308,234.803 235.308,233.97 232.5,232.5C 231.692,232.808 231.025,233.308 230.5,234C 226.789,234.175 223.122,234.675 219.5,235.5C 222.454,236.147 225.454,236.314 228.5,236C 229.807,237.943 229.807,239.777 228.5,241.5C 228.5,240.167 228.5,238.833 228.5,237.5C 225.167,237.5 221.833,237.5 218.5,237.5C 217.965,234.762 218.965,232.928 221.5,232C 224.531,231.505 227.531,231.671 230.5,232.5C 230.5,231.5 230.5,230.5 230.5,229.5C 227.287,229.81 224.287,229.477 221.5,228.5C 230.567,227.762 239.567,227.428 248.5,227.5C 253.361,229.61 253.695,232.277 249.5,235.5 Z"/></g>
<g><path style="opacity:1" fill="#2a2a2a" d="M 221.5,228.5 C 224.287,229.477 227.287,229.81 230.5,229.5C 230.5,230.5 230.5,231.5 230.5,232.5C 227.531,231.671 224.531,231.505 221.5,232C 218.965,232.928 217.965,234.762 218.5,237.5C 221.833,237.5 225.167,237.5 228.5,237.5C 228.5,238.833 228.5,240.167 228.5,241.5C 225.713,242.477 222.713,242.81 219.5,242.5C 219.998,245.681 219.165,248.347 217,250.5C 216,249.833 215,249.167 214,248.5C 213.333,242.167 213.333,235.833 214,229.5C 216.381,228.565 218.881,228.232 221.5,228.5 Z"/></g>
<g><path style="opacity:1" fill="#292929" d="M 280.5,228.5 C 282.199,228.34 283.866,228.506 285.5,229C 288,232.167 290.5,235.333 293,238.5C 293.498,235.183 293.665,231.85 293.5,228.5C 295.467,228.261 297.301,228.594 299,229.5C 299.667,236.167 299.667,242.833 299,249.5C 297.132,250.672 295.298,250.505 293.5,249C 291.451,246.407 289.285,243.907 287,241.5C 286.713,243.891 286.213,246.224 285.5,248.5C 281.552,251.624 279.218,250.624 278.5,245.5C 279.121,239.781 279.787,234.114 280.5,228.5 Z"/></g>
<g><path style="opacity:1" fill="#6c6c6c" d="M 339.5,219.5 C 343.137,223.808 346.804,228.142 350.5,232.5C 350.5,234.167 350.5,235.833 350.5,237.5C 353.509,237.423 355.676,238.756 357,241.5C 357.414,241.043 357.914,240.709 358.5,240.5C 360.422,241.96 361.089,243.627 360.5,245.5C 359.914,245.291 359.414,244.957 359,244.5C 357.933,246.283 356.433,246.783 354.5,246C 351.167,245.333 349.167,243.333 348.5,240C 347.072,239.421 345.738,239.588 344.5,240.5C 339.127,235.425 334.461,229.759 330.5,223.5C 329.082,221.692 327.082,221.025 324.5,221.5C 323.167,221.5 321.833,221.5 320.5,221.5C 319.957,221.44 319.624,221.107 319.5,220.5C 326.134,219.503 332.8,219.17 339.5,219.5 Z"/></g>
<g><path style="opacity:1" fill="#2d5f4e" d="M 355.5,229.5 C 358.269,230.437 360.936,231.604 363.5,233C 364.598,233.77 364.598,234.603 363.5,235.5C 360.545,233.878 357.878,231.878 355.5,229.5 Z"/></g>
<g><path style="opacity:1" fill="#254c3b" d="M 383.5,232.5 C 379.876,235.651 375.876,238.318 371.5,240.5C 369.974,240.006 368.641,239.339 367.5,238.5C 370.188,238.834 372.521,238.168 374.5,236.5C 377.191,234.485 380.191,233.152 383.5,232.5 Z"/></g>
<g><path style="opacity:1" fill="#313131" d="M 387.5,249.5 C 384.004,252.656 380.004,254.989 375.5,256.5C 377.239,253.769 378.906,250.936 380.5,248C 379.676,244.946 378.009,244.112 375.5,245.5C 380.142,241.864 384.809,238.197 389.5,234.5C 391.986,232.536 394.819,231.202 398,230.5C 398.833,231.333 399.667,232.167 400.5,233C 399.139,234.584 398.472,236.418 398.5,238.5C 397.448,238.351 396.448,238.517 395.5,239C 393.099,241.1 390.765,243.267 388.5,245.5C 387.754,246.736 387.421,248.07 387.5,249.5 Z"/></g>
<g><path style="opacity:1" fill="#2a2a2a" d="M 249.5,235.5 C 247.823,237.54 246.156,239.54 244.5,241.5C 242.952,241.821 242.285,242.821 242.5,244.5C 245.5,244.5 248.5,244.5 251.5,244.5C 251.634,246.292 251.301,247.958 250.5,249.5C 245.944,250.378 241.444,250.711 237,250.5C 232.915,249.341 231.915,247.007 234,243.5C 236.037,241.294 238.203,239.294 240.5,237.5C 243.017,236.107 244.684,234.107 245.5,231.5C 244.127,231.657 242.793,231.49 241.5,231C 243.696,229.648 245.862,229.148 248,229.5C 248.318,231.061 249.151,232.228 250.5,233C 249.748,233.671 249.414,234.504 249.5,235.5 Z"/></g>
<g><path style="opacity:1" fill="#292929" d="M 173.5,227.5 C 177.79,226.987 181.623,227.987 185,230.5C 185.72,232.112 185.554,233.612 184.5,235C 181.924,235.606 179.59,235.106 177.5,233.5C 176.833,233.833 176.167,234.167 175.5,234.5C 178.432,235.817 181.432,236.984 184.5,238C 188.323,242.911 187.323,246.911 181.5,250C 176.643,250.998 172.143,250.165 168,247.5C 167.28,245.888 167.446,244.388 168.5,243C 171.473,242.617 174.306,243.117 177,244.5C 177.75,243.874 178.584,243.374 179.5,243C 175.169,242.669 171.336,241.169 168,238.5C 167.333,236.167 167.333,233.833 168,231.5C 169.812,230.023 171.645,228.69 173.5,227.5 Z"/></g>
<g><path style="opacity:1" fill="#282828" d="M 250.5,249.5 C 251.301,247.958 251.634,246.292 251.5,244.5C 248.5,244.5 245.5,244.5 242.5,244.5C 242.285,242.821 242.952,241.821 244.5,241.5C 244.389,242.117 244.056,242.617 243.5,243C 246.5,243.333 249.5,243.667 252.5,244C 253,244.5 253.5,245 254,245.5C 256.908,240.011 259.741,234.511 262.5,229C 265.636,227.959 268.136,228.793 270,231.5C 271.207,236.244 273.207,240.577 276,244.5C 276.852,247.033 276.186,249.033 274,250.5C 271.139,248.047 267.806,246.381 264,245.5C 261.672,245.817 259.839,246.984 258.5,249C 255.674,249.029 253.007,249.195 250.5,249.5 Z M 264.5,237.5 C 265.773,238.077 265.773,238.743 264.5,239.5C 263.537,239.03 263.537,238.363 264.5,237.5 Z"/></g>
<g><path style="opacity:1" fill="#272727" d="M 196.5,228.5 C 198.792,228.244 200.959,228.577 203,229.5C 205.139,235.112 207.806,240.446 211,245.5C 212.167,249.667 210.667,251.167 206.5,250C 204.192,246.195 200.859,244.862 196.5,246C 195.353,248.178 193.687,249.678 191.5,250.5C 189.67,250.42 188.337,249.587 187.5,248C 190.224,241.309 193.224,234.809 196.5,228.5 Z M 198.5,237.5 C 200.332,238.14 200.665,239.14 199.5,240.5C 198.614,239.675 198.281,238.675 198.5,237.5 Z"/></g>
<g><path style="opacity:1" fill="#5a5b5b" d="M 350.5,232.5 C 356.601,236.755 362.601,241.255 368.5,246C 370.885,246.556 373.218,246.39 375.5,245.5C 378.009,244.112 379.676,244.946 380.5,248C 378.906,250.936 377.239,253.769 375.5,256.5C 374.504,257.665 373.171,258.332 371.5,258.5C 361.303,254.239 352.303,248.239 344.5,240.5C 345.738,239.588 347.072,239.421 348.5,240C 349.167,243.333 351.167,245.333 354.5,246C 356.433,246.783 357.933,246.283 359,244.5C 359.414,244.957 359.914,245.291 360.5,245.5C 361.089,243.627 360.422,241.96 358.5,240.5C 357.914,240.709 357.414,241.043 357,241.5C 355.676,238.756 353.509,237.423 350.5,237.5C 350.5,235.833 350.5,234.167 350.5,232.5 Z"/></g>
<g><path style="opacity:1" fill="#242424" d="M 230.5,260.5 C 229.163,259.685 228.163,258.518 227.5,257C 225.402,256.322 223.402,256.489 221.5,257.5C 221.414,256.504 221.748,255.671 222.5,255C 227.173,253.832 229.84,255.665 230.5,260.5 Z"/></g>
<g><path style="opacity:1" fill="#4e4e4e" d="M 324.5,255.5 C 324.334,260.511 324.501,265.511 325,270.5C 326.011,271.337 327.178,271.67 328.5,271.5C 328.586,272.496 328.252,273.329 327.5,274C 322.994,276.814 318.327,277.147 313.5,275C 311.513,273.681 310.346,271.848 310,269.5C 309.721,264.571 310.221,259.738 311.5,255C 313.112,254.28 314.612,254.446 316,255.5C 316.333,260.167 316.667,264.833 317,269.5C 318.796,270.767 320.629,270.767 322.5,269.5C 323.167,264.683 323.834,260.017 324.5,255.5 Z"/></g>
<g><path style="opacity:1" fill="#4f4f4f" d="M 328.5,271.5 C 327.178,271.67 326.011,271.337 325,270.5C 324.501,265.511 324.334,260.511 324.5,255.5C 325.884,254.199 327.384,254.199 329,255.5C 329.817,261.016 329.651,266.35 328.5,271.5 Z"/></g>
<g><path style="opacity:1" fill="#373737" d="M 194.5,254.5 C 209.723,252.369 215.057,258.369 210.5,272.5C 204.974,274.067 199.308,274.734 193.5,274.5C 191.847,267.6 192.18,260.934 194.5,254.5 Z M 198.5,260.5 C 205.312,260.431 207.312,263.265 204.5,269C 202.782,269.346 201.115,269.846 199.5,270.5C 198.199,267.11 197.866,263.776 198.5,260.5 Z"/></g>
<g><path style="opacity:1" fill="#4c4c4c" d="M 230.5,260.5 C 230.337,262.857 230.503,265.19 231,267.5C 232.419,269.336 233.586,271.336 234.5,273.5C 233.311,274.429 231.978,274.762 230.5,274.5C 231.171,273.153 231.171,271.986 230.5,271C 228.423,270.808 226.423,270.308 224.5,269.5C 226.477,268.618 228.144,267.452 229.5,266C 228.59,264.251 227.257,263.084 225.5,262.5C 225.167,262.5 224.833,262.5 224.5,262.5C 222.887,262.944 221.72,263.944 221,265.5C 220.626,264.584 220.126,263.75 219.5,263C 220.582,261.67 221.249,260.17 221.5,258.5C 221.5,258.167 221.5,257.833 221.5,257.5C 223.402,256.489 225.402,256.322 227.5,257C 228.163,258.518 229.163,259.685 230.5,260.5 Z"/></g>
<g><path style="opacity:1" fill="#3f3f3f" d="M 236.5,254.5 C 242.176,254.334 247.843,254.501 253.5,255C 254.406,256.699 254.739,258.533 254.5,260.5C 252.208,260.244 250.041,260.577 248,261.5C 248.71,266.126 248.544,270.793 247.5,275.5C 245.958,276.747 244.458,276.747 243,275.5C 242.667,270.833 242.333,266.167 242,261.5C 239.959,260.577 237.792,260.244 235.5,260.5C 235.325,258.379 235.659,256.379 236.5,254.5 Z"/></g>
<g><path style="opacity:1" fill="#5a5a5a" d="M 297.5,262.5 C 298.975,264.41 300.975,265.576 303.5,266C 301.187,266.662 298.854,267.162 296.5,267.5C 289.086,267.156 286.92,263.489 290,256.5C 294.271,254.504 298.771,254.004 303.5,255C 305.363,256.418 305.863,258.251 305,260.5C 301.611,260.703 298.111,260.87 294.5,261C 295.244,262.039 296.244,262.539 297.5,262.5 Z"/></g>
<g><path style="opacity:1" fill="#636363" d="M 350.5,257.5 C 349.587,259.086 349.587,260.586 350.5,262C 348.457,262.64 346.79,262.14 345.5,260.5C 345.167,260.5 344.833,260.5 344.5,260.5C 342.735,259.539 340.735,259.205 338.5,259.5C 338.5,260.833 338.5,262.167 338.5,263.5C 348.844,264.344 348.844,265.677 338.5,267.5C 338.5,268.833 338.5,270.167 338.5,271.5C 339.263,272.268 340.263,272.768 341.5,273C 339.121,273.614 336.788,273.947 334.5,274C 335.167,270 335.833,266 336.5,262C 334.984,260.103 334.317,257.936 334.5,255.5C 338.646,254.353 342.98,254.186 347.5,255C 348.942,255.377 349.942,256.21 350.5,257.5 Z M 344.5,260.5 C 344.833,260.5 345.167,260.5 345.5,260.5C 345.03,261.693 344.03,262.36 342.5,262.5C 341.5,262.167 340.5,261.833 339.5,261.5C 341.045,260.548 342.712,260.215 344.5,260.5 Z"/></g>
<g><path style="opacity:1" fill="#3b3b3b" d="M 221.5,258.5 C 221.249,260.17 220.582,261.67 219.5,263C 220.126,263.75 220.626,264.584 221,265.5C 221.72,263.944 222.887,262.944 224.5,262.5C 224.67,263.822 224.337,264.989 223.5,266C 224.5,266.667 225.5,266.667 226.5,266C 225.663,264.989 225.33,263.822 225.5,262.5C 227.257,263.084 228.59,264.251 229.5,266C 228.144,267.452 226.477,268.618 224.5,269.5C 226.423,270.308 228.423,270.808 230.5,271C 231.171,271.986 231.171,273.153 230.5,274.5C 228.954,273.364 227.121,272.698 225,272.5C 221.688,273.118 218.688,274.451 216,276.5C 215.228,276.355 214.561,276.022 214,275.5C 213.675,273.447 214.009,271.447 215,269.5C 217.087,265.678 219.253,262.011 221.5,258.5 Z M 224.5,262.5 C 224.833,262.5 225.167,262.5 225.5,262.5C 225.33,263.822 225.663,264.989 226.5,266C 225.5,266.667 224.5,266.667 223.5,266C 224.337,264.989 224.67,263.822 224.5,262.5 Z"/></g>
<g><path style="opacity:1" fill="#595959" d="M 334.5,255.5 C 334.317,257.936 334.984,260.103 336.5,262C 335.833,266 335.167,270 334.5,274C 336.788,273.947 339.121,273.614 341.5,273C 340.263,272.768 339.263,272.268 338.5,271.5C 341.059,271.802 343.393,271.468 345.5,270.5C 346.713,269.503 346.546,268.503 345,267.5C 343.374,267.854 341.541,267.854 339.5,267.5C 339.167,267.5 338.833,267.5 338.5,267.5C 348.844,265.677 348.844,264.344 338.5,263.5C 338.5,262.167 338.5,260.833 338.5,259.5C 340.735,259.205 342.735,259.539 344.5,260.5C 342.712,260.215 341.045,260.548 339.5,261.5C 340.5,261.833 341.5,262.167 342.5,262.5C 344.03,262.36 345.03,261.693 345.5,260.5C 346.79,262.14 348.457,262.64 350.5,262C 349.587,260.586 349.587,259.086 350.5,257.5C 351.525,258.374 352.192,259.541 352.5,261C 352.127,265.114 351.96,269.28 352,273.5C 349.978,274.786 347.811,275.786 345.5,276.5C 342.171,275.611 338.671,275.611 335,276.5C 333.868,273.016 333.368,269.349 333.5,265.5C 333.502,261.982 333.835,258.649 334.5,255.5 Z M 344.5,260.5 C 344.833,260.5 345.167,260.5 345.5,260.5C 345.03,261.693 344.03,262.36 342.5,262.5C 341.5,262.167 340.5,261.833 339.5,261.5C 341.045,260.548 342.712,260.215 344.5,260.5 Z M 339.5,267.5 C 341.541,267.854 343.374,267.854 345,267.5C 346.546,268.503 346.713,269.503 345.5,270.5C 343.5,270.5 341.5,270.5 339.5,270.5C 339.5,269.5 339.5,268.5 339.5,267.5 Z"/></g>
<g><path style="opacity:1" fill="#4c4c4c" d="M 297.5,262.5 C 306.406,262.8 308.906,266.8 305,274.5C 299.866,277.139 294.699,277.139 289.5,274.5C 288.386,273.277 288.219,271.944 289,270.5C 292.737,270.207 296.57,270.041 300.5,270C 299.142,269.066 297.808,268.232 296.5,267.5C 298.854,267.162 301.187,266.662 303.5,266C 300.975,265.576 298.975,264.41 297.5,262.5 Z"/></g>
<g><path style="opacity:1" fill="#4c4c4c" d="M 275.5,272.5 C 274.817,274.176 273.483,274.843 271.5,274.5C 271.756,272.088 270.756,270.421 268.5,269.5C 266.24,270.912 263.907,271.912 261.5,272.5C 259.496,276.669 256.829,277.336 253.5,274.5C 255.357,270.126 257.19,265.793 259,261.5C 260.252,259.999 261.252,258.332 262,256.5C 264.333,253.833 266.667,253.833 269,256.5C 271.48,261.782 273.647,267.115 275.5,272.5 Z M 264.5,263.5 C 265.267,264.172 265.934,265.005 266.5,266C 264.939,266.188 264.272,265.355 264.5,263.5 Z"/></g>
<g><path style="opacity:1" fill="#2d2d2d" d="M 275.5,272.5 C 276.434,273.568 276.768,274.901 276.5,276.5C 273.404,277.093 271.071,276.093 269.5,273.5C 266.914,272.52 264.247,272.187 261.5,272.5C 263.907,271.912 266.24,270.912 268.5,269.5C 270.756,270.421 271.756,272.088 271.5,274.5C 273.483,274.843 274.817,274.176 275.5,272.5 Z"/></g>
<g><path style="opacity:1" fill="#202020" d="M 338.5,267.5 C 338.833,267.5 339.167,267.5 339.5,267.5C 339.5,268.5 339.5,269.5 339.5,270.5C 341.5,270.5 343.5,270.5 345.5,270.5C 343.393,271.468 341.059,271.802 338.5,271.5C 338.5,270.167 338.5,268.833 338.5,267.5 Z"/></g>
<g><path style="opacity:1" fill="#1d1d1d" d="M 194.5,254.5 C 192.18,260.934 191.847,267.6 193.5,274.5C 199.308,274.734 204.974,274.067 210.5,272.5C 209.942,273.79 208.942,274.623 207.5,275C 202.3,276.435 197.134,276.602 192,275.5C 191.333,268.833 191.333,262.167 192,255.5C 192.671,254.748 193.504,254.414 194.5,254.5 Z"/></g>
<g><path style="opacity:1" fill="#303030" d="M 230.5,260.5 C 232.839,264.692 234.839,269.192 236.5,274C 236.266,275.732 235.266,276.566 233.5,276.5C 231.962,276.547 230.962,275.88 230.5,274.5C 231.978,274.762 233.311,274.429 234.5,273.5C 233.586,271.336 232.419,269.336 231,267.5C 230.503,265.19 230.337,262.857 230.5,260.5 Z"/></g>
</svg>
